<svg width="24" height="24" viewBox="0 0 24 24" fill="none" xmlns="http://www.w3.org/2000/svg">
<path fill-rule="evenodd" clip-rule="evenodd" d="M9.91021 5.42265C10.6966 4.96048 11.6212 4.79154 12.5202 4.94574C13.4192 5.09995 14.2346 5.56735 14.822 6.26516C15.4095 6.96297 15.731 7.84616 15.7296 8.7583L15.7296 8.75979C15.7296 9.84972 14.8989 10.8044 13.7437 11.5745C13.1965 11.9393 12.6423 12.2172 12.2208 12.4045C12.0115 12.4975 11.8385 12.5666 11.7201 12.6117C11.6611 12.6342 11.6158 12.6507 11.5868 12.661L11.5558 12.6718L11.551 12.6735L11.8672 13.6222C11.551 12.6735 11.5507 12.6736 11.5505 12.6737L11.5498 12.6739C11.0266 12.849 10.744 13.4149 10.9185 13.9384C11.0932 14.4624 11.6595 14.7455 12.1834 14.5709L11.8789 13.6572C12.1834 14.5709 12.1837 14.5708 12.1841 14.5707L12.1848 14.5704L12.1866 14.5698L12.1915 14.5682L12.2065 14.563C12.2189 14.5588 12.2357 14.5529 12.2568 14.5454C12.299 14.5304 12.3583 14.5088 12.4321 14.4807C12.5797 14.4245 12.7865 14.3417 13.0331 14.2321C13.5234 14.0142 14.1847 13.6843 14.8531 13.2386C16.129 12.3881 17.7292 10.9118 17.7296 8.76053L17.7296 8.76128L16.7296 8.75979H17.7296V8.76053C17.7315 7.37634 17.2435 6.03611 16.3521 4.97716C15.4605 3.91801 14.2228 3.20859 12.8583 2.97453C11.4938 2.74048 10.0904 2.9969 8.89684 3.69838C7.70326 4.39987 6.79644 5.50114 6.33702 6.80715C6.15375 7.32814 6.42752 7.89905 6.94851 8.08232C7.4695 8.2656 8.04042 7.99182 8.22369 7.47083C8.52638 6.61038 9.12382 5.88481 9.91021 5.42265ZM11.9969 19.1054C11.4446 19.1054 10.9969 19.5531 10.9969 20.1054C10.9969 20.6577 11.4446 21.1054 11.9969 21.1054H12.0131C12.5654 21.1054 13.0131 20.6577 13.0131 20.1054C13.0131 19.5531 12.5654 19.1054 12.0131 19.1054H11.9969Z" fill="#00B3D1"/>
</svg>
