<svg width="24" height="24" viewBox="0 0 24 24" fill="none" xmlns="http://www.w3.org/2000/svg">
<path d="M14.0478 12.7365C14.0728 12.7701 14.0988 12.8026 14.1244 12.8337C13.5337 13.8398 13.0634 14.9204 12.7385 16.0522C12.3878 14.7194 11.7877 13.4321 10.991 12.3112C11.9051 10.295 11.352 7.67771 9.99761 6.04966C8.98108 4.82752 7.51873 4.29589 5.9969 4.05288C4.86131 3.87156 3.66748 3.84817 2.58061 3.82687C2.21631 3.81973 1.86402 3.81283 1.52997 3.80029L1.52992 3.80029C1.37499 3.79452 1.25586 3.87364 1.18488 3.97385C1.14995 4.02315 1.12528 4.07879 1.11069 4.13627C1.01398 4.18382 0.92999 4.25904 0.873721 4.35303C0.784829 4.50152 0.768116 4.69305 0.869174 4.87824L0.869236 4.87836C1.80931 6.59837 2.66452 8.29423 3.30119 10.1486L3.3012 10.1487C3.3456 10.278 3.38969 10.4093 3.43421 10.5419C3.81649 11.6809 4.23112 12.9162 5.163 13.788L5.163 13.788C6.76646 15.2881 9.14444 14.8551 10.4398 13.2264C10.4583 13.2526 10.4766 13.2794 10.4952 13.308C11.7537 15.2545 12.0803 17.4148 12.1237 19.7479L12.1237 19.748C12.1262 19.8826 12.1748 20.0012 12.265 20.0851C12.3529 20.167 12.4656 20.202 12.5724 20.1999C12.7871 20.1956 13.0041 20.04 13.0357 19.7673C13.0698 19.475 13.0878 19.1794 13.093 18.8827C13.3834 16.9581 13.9798 15.1713 14.8769 13.5745C16.1806 14.5697 17.9175 14.6258 19.3604 13.6444L19.3604 13.6444C20.7559 12.6949 21.3044 11.3245 21.6875 9.90484C21.7802 9.56134 21.8638 9.21261 21.9469 8.86593L21.9552 8.83137C22.0413 8.47231 22.1272 8.11543 22.2236 7.7628C22.4165 7.05743 22.6493 6.37778 23 5.7542L23.0002 5.75382C23.0313 5.69816 23.0495 5.64363 23.0589 5.59144C23.1589 5.5112 23.205 5.38651 23.1996 5.2739C23.1957 5.19358 23.1662 5.10877 23.1033 5.04099C23.0382 4.9709 22.9483 4.93092 22.8478 4.9257L22.8478 4.92569C22.6104 4.91338 22.3662 4.89863 22.1168 4.88356C20.9921 4.81558 19.7627 4.74129 18.5828 4.85673C17.1359 4.99829 15.7318 5.42686 14.6483 6.52211C13.0143 8.17355 12.5955 10.787 14.0478 12.7365ZM14.0478 12.7365L14.2083 12.6171M14.0478 12.7365C14.0479 12.7365 14.0479 12.7366 14.0479 12.7366L14.2083 12.6171M14.2083 12.6171C12.8241 10.7591 13.2147 8.25539 14.7904 6.66277L12.8363 16.4539C13.1684 15.1668 13.6913 13.9419 14.3688 12.8138C14.358 12.8009 14.3472 12.7881 14.3364 12.7753C14.2929 12.7238 14.2495 12.6724 14.2083 12.6171ZM10.2281 11.3598C10.5596 10.3138 10.4217 9.13336 9.95573 8.08752C9.44293 6.93668 8.54487 5.97632 7.48765 5.55333L10.2281 11.3598ZM10.2281 11.3598C9.12854 10.1395 7.75724 9.20979 6.19302 8.8078L6.19277 8.80773C6.01241 8.76163 5.87336 8.87475 5.82328 8.99604C5.77284 9.11822 5.79263 9.29375 5.94842 9.39074M10.2281 11.3598L7.48764 5.55332C6.60672 5.20097 5.63287 5.04703 4.62632 4.95137C4.23249 4.91394 3.82879 4.88522 3.42439 4.85645C2.94293 4.8222 2.46048 4.78789 1.99251 4.73871M5.94842 9.39074C5.94834 9.39069 5.94826 9.39064 5.94818 9.39059L6.05413 9.22095L5.94842 9.39074ZM5.94842 9.39074C7.39397 10.2935 8.68767 11.1071 9.7527 12.3334M9.7527 12.3334C9.66691 12.4576 9.57366 12.5772 9.46944 12.6918L9.46943 12.6918C8.23785 14.0451 6.28203 13.7173 5.28684 12.2191M9.7527 12.3334C9.78523 12.3709 9.81755 12.4087 9.84965 12.447L10.0028 12.3184M9.7527 12.3334C9.78068 12.2929 9.80788 12.252 9.8344 12.2106L10.0028 12.3184M5.28684 12.2191C4.99484 11.7795 4.78424 11.2806 4.59863 10.7554C4.51176 10.5095 4.43117 10.2603 4.35001 10.0094C4.3445 9.99236 4.339 9.97534 4.33349 9.95831C4.24705 9.69114 4.15951 9.42232 4.06422 9.15998L4.06421 9.15997C3.50278 7.61477 2.75981 6.16599 1.99251 4.73871M5.28684 12.2191L5.12024 12.3298M5.28684 12.2191C5.28684 12.2191 5.28683 12.2191 5.28683 12.2191L5.12024 12.3298M1.99251 4.73871C1.9115 4.73019 1.83092 4.72124 1.75086 4.71176L1.8774 4.52506C1.91582 4.59623 1.95419 4.66744 1.99251 4.73871ZM5.12024 12.3298C6.17386 13.9159 8.28227 14.2934 9.61735 12.8264M5.12024 12.3298C4.67196 11.6548 4.41397 10.8571 4.15991 10.0715C4.06779 9.7867 3.9762 9.50347 3.87623 9.22827L9.61735 12.8264M9.61735 12.8264C9.76455 12.6646 9.89017 12.4944 10.0028 12.3184M9.61735 12.8264L10.0028 12.3184M20.6802 9.60193L20.6802 9.60195C20.3552 10.7842 19.5481 12.0557 18.5471 12.7592C18.049 13.1092 17.5131 13.3119 16.9709 13.3056C16.4726 13.2999 15.9499 13.1177 15.4266 12.6781C16.3844 11.24 17.6104 9.97886 19.1127 8.94648L19.1128 8.9464C19.3646 8.77309 19.3639 8.47799 19.2584 8.28885C19.2048 8.19272 19.1163 8.10535 18.9974 8.06547C18.8721 8.02345 18.7354 8.04196 18.6125 8.12182C17.0853 9.1135 15.7649 10.4047 14.7251 11.896C14.1249 10.9919 14.0589 9.94811 14.3711 8.98678C14.7107 7.941 15.4967 7.00076 16.5166 6.46953L16.5167 6.46952C17.3059 6.05828 18.2366 5.89301 19.2196 5.8214C19.7102 5.78566 20.2094 5.77345 20.7072 5.76429C20.7777 5.76299 20.8482 5.76175 20.9187 5.76051C21.2208 5.75521 21.5219 5.74993 21.8176 5.73994C21.526 6.30419 21.3388 6.88989 21.1869 7.48061C21.1075 7.78977 21.0371 8.10279 20.967 8.4147C20.9576 8.4566 20.9482 8.49848 20.9387 8.54033C20.8588 8.89502 20.7774 9.24862 20.6802 9.60193Z" fill="#00B3D1" stroke="#00B3D1" stroke-width="0.4"/>
</svg>
