<svg width="24" height="24" viewBox="0 0 24 24" fill="none" xmlns="http://www.w3.org/2000/svg">
<path d="M2.57132 3C2.52001 3 2.4685 3.00256 2.41738 3.00769C2.36607 3.01282 2.31534 3.02052 2.2648 3.03078C2.21426 3.04084 2.1645 3.05366 2.11532 3.06885C2.06594 3.08404 2.01753 3.1016 1.97009 3.12173C1.92246 3.14185 1.87599 3.16414 1.83068 3.1888C1.78517 3.21366 1.74122 3.24049 1.69843 3.26949C1.65564 3.29869 1.6142 3.32986 1.5745 3.3632C1.53462 3.39635 1.49666 3.43146 1.46026 3.46855C1.42386 3.50564 1.38939 3.54431 1.35667 3.58495C1.32395 3.62539 1.29335 3.66742 1.26489 3.71102C1.23623 3.75462 1.2097 3.7994 1.1855 3.84576C1.16129 3.89193 1.13922 3.93928 1.11966 3.98761C1.09991 4.03614 1.08249 4.08527 1.06758 4.13557C1.05267 4.18568 1.04028 4.23639 1.03021 4.28788C1.02014 4.33917 1.01259 4.39106 1.00755 4.44314C1.00252 4.49523 1 4.54751 1 4.59998C1 4.65226 1.00252 4.70455 1.00755 4.75683C1.01259 4.80891 1.02014 4.8606 1.03021 4.91209C1.04028 4.96338 1.05267 5.01428 1.06758 5.06439C1.08249 5.1145 1.09991 5.16383 1.11966 5.21216C1.13922 5.26069 1.16129 5.30804 1.1855 5.35421C1.2097 5.40037 1.23623 5.44535 1.26489 5.48875C1.29335 5.53235 1.32395 5.57438 1.35667 5.61502C1.38939 5.65546 1.42386 5.69433 1.46026 5.73122C1.49666 5.76831 1.53462 5.80342 1.5745 5.83677C1.6142 5.86991 1.65564 5.90108 1.69843 5.93028C1.74122 5.95948 1.78517 5.98631 1.83068 6.01097C1.87599 6.03563 1.92246 6.05812 1.97009 6.07824C2.01753 6.09817 2.06594 6.11592 2.11532 6.13112C2.1645 6.14631 2.21426 6.15893 2.2648 6.16919C2.31534 6.17945 2.36607 6.18714 2.41738 6.19227C2.4685 6.1974 2.52001 6.19997 2.57132 6.19997C2.62282 6.19997 2.67414 6.1974 2.72545 6.19227C2.77657 6.18714 2.82749 6.17945 2.87803 6.16919C2.92837 6.15893 2.97833 6.14631 3.02751 6.13112C3.07689 6.11592 3.1253 6.09817 3.17274 6.07824C3.22037 6.05812 3.26684 6.03563 3.31215 6.01097C3.35746 5.98631 3.40161 5.95948 3.4444 5.93028C3.48719 5.90108 3.52844 5.86991 3.56833 5.83677C3.60802 5.80342 3.64617 5.76831 3.68257 5.73122C3.71897 5.69433 3.75344 5.65546 3.78616 5.61502C3.81869 5.57438 3.84948 5.53235 3.87794 5.48875C3.9066 5.44535 3.93293 5.40037 3.95733 5.35421C3.98153 5.30804 4.00341 5.26069 4.02317 5.21216C4.04292 5.16383 4.06015 5.1145 4.07525 5.06439C4.09016 5.01428 4.10255 4.96338 4.11262 4.91209C4.12269 4.8606 4.13024 4.80891 4.13528 4.75683C4.14031 4.70455 4.14283 4.65226 4.14283 4.59998C4.14283 4.54751 4.14031 4.49523 4.13528 4.44314C4.13024 4.39106 4.12269 4.33917 4.11262 4.28788C4.10255 4.23639 4.09016 4.18568 4.07525 4.13557C4.06015 4.08527 4.04292 4.03614 4.02317 3.98761C4.00341 3.93928 3.98153 3.89193 3.95733 3.84576C3.93293 3.7994 3.9066 3.75462 3.87794 3.71102C3.84948 3.66742 3.81869 3.62539 3.78616 3.58495C3.75344 3.54431 3.71897 3.50564 3.68257 3.46855C3.64617 3.43146 3.60802 3.39635 3.56833 3.3632C3.52844 3.32986 3.48719 3.29869 3.4444 3.26949C3.40161 3.24049 3.35746 3.21366 3.31215 3.1888C3.26684 3.16414 3.22037 3.14185 3.17274 3.12173C3.1253 3.1016 3.07689 3.08404 3.02751 3.06885C2.97833 3.05366 2.92837 3.04084 2.87803 3.03078C2.82749 3.02052 2.77657 3.01282 2.72545 3.00769C2.67414 3.00256 2.62282 3 2.57132 3ZM7.28566 3.79999C7.25971 3.7996 7.23377 3.80058 7.20801 3.80275C7.18207 3.80492 7.15631 3.80848 7.13075 3.81341C7.10539 3.81814 7.08002 3.82426 7.05504 3.83176C7.03026 3.83905 7.00567 3.84774 6.98166 3.8576C6.95745 3.86746 6.93402 3.87851 6.91098 3.89074C6.88794 3.90298 6.86548 3.91639 6.84379 3.93079C6.82211 3.94519 6.80119 3.96078 6.78086 3.97735C6.76072 3.99412 6.74136 4.01168 6.72297 4.03022C6.70438 4.04877 6.68676 4.0683 6.6703 4.08862C6.65365 4.10894 6.63816 4.13005 6.62344 4.15195C6.60892 4.17385 6.59556 4.19634 6.58316 4.21962C6.57077 4.2429 6.55974 4.26677 6.54967 4.29123C6.5396 4.3155 6.53088 4.34036 6.52314 4.36561C6.51559 4.39086 6.5092 4.41651 6.50416 4.44255C6.49913 4.46839 6.49526 4.49444 6.49255 4.52087C6.49003 4.54711 6.48887 4.57355 6.48887 4.59998C6.48887 4.62642 6.49003 4.65266 6.49255 4.6791C6.49526 4.70533 6.49913 4.73157 6.50416 4.75742C6.5092 4.78326 6.51559 4.80891 6.52314 4.83416C6.53088 4.85941 6.5396 4.88427 6.54967 4.90874C6.55974 4.9332 6.57077 4.95687 6.58316 4.98015C6.59556 5.00343 6.60892 5.02612 6.62344 5.04802C6.63816 5.06992 6.65365 5.09103 6.6703 5.11135C6.68676 5.13167 6.70438 5.1512 6.72297 5.16974C6.74136 5.18829 6.76072 5.20585 6.78086 5.22242C6.80119 5.23899 6.82211 5.25458 6.84379 5.26918C6.86548 5.28358 6.88794 5.29699 6.91098 5.30923C6.93402 5.32146 6.95745 5.3325 6.98166 5.34237C7.00567 5.35223 7.03026 5.36072 7.05504 5.36821C7.08002 5.37551 7.10539 5.38163 7.13075 5.38656C7.15631 5.3913 7.18207 5.39485 7.20801 5.39721C7.23377 5.39938 7.25971 5.40037 7.28566 5.39998H20.6429C20.6689 5.40037 20.6948 5.39938 20.7206 5.39721C20.7465 5.39485 20.7723 5.3913 20.7978 5.38656C20.8232 5.38163 20.8486 5.37551 20.8735 5.36821C20.8983 5.36072 20.9229 5.35223 20.9469 5.34237C20.9711 5.3325 20.9946 5.32146 21.0176 5.30923C21.0406 5.29699 21.0631 5.28358 21.0848 5.26918C21.1065 5.25458 21.1274 5.23899 21.1477 5.22242C21.1679 5.20585 21.1872 5.18829 21.2056 5.16974C21.2242 5.1512 21.2418 5.13167 21.2583 5.11135C21.2749 5.09103 21.2904 5.06992 21.305 5.04802C21.3197 5.02612 21.333 5.00343 21.3454 4.98015C21.3576 4.95687 21.3689 4.9332 21.3789 4.90874C21.389 4.88427 21.3977 4.85941 21.4054 4.83416C21.413 4.80891 21.4194 4.78326 21.4244 4.75742C21.4295 4.73157 21.4333 4.70533 21.436 4.6791C21.4386 4.65266 21.4397 4.62642 21.4397 4.59998C21.4397 4.57355 21.4386 4.54711 21.436 4.52087C21.4333 4.49444 21.4295 4.46839 21.4244 4.44255C21.4194 4.41651 21.413 4.39086 21.4054 4.36561C21.3977 4.34036 21.389 4.3155 21.3789 4.29123C21.3689 4.26677 21.3576 4.2429 21.3454 4.21962C21.333 4.19634 21.3197 4.17385 21.305 4.15195C21.2904 4.13005 21.2749 4.10894 21.2583 4.08862C21.2418 4.0683 21.2242 4.04877 21.2056 4.03022C21.1872 4.01168 21.1679 3.99412 21.1477 3.97735C21.1274 3.96078 21.1065 3.94519 21.0848 3.93079C21.0631 3.91639 21.0406 3.90298 21.0176 3.89074C20.9946 3.87851 20.9711 3.86746 20.9469 3.8576C20.9229 3.84774 20.8983 3.83905 20.8735 3.83176C20.8486 3.82426 20.8232 3.81814 20.7978 3.81341C20.7723 3.80848 20.7465 3.80492 20.7206 3.80275C20.6948 3.80058 20.6689 3.7996 20.6429 3.79999H7.28566ZM2.57132 9.39994C2.52001 9.39994 2.4685 9.4025 2.41738 9.40763C2.36607 9.41276 2.31534 9.42045 2.2648 9.43071C2.21426 9.44097 2.1645 9.4536 2.11532 9.46879C2.06594 9.48398 2.01753 9.50174 1.97009 9.52166C1.92246 9.54178 1.87599 9.56408 1.83068 9.58894C1.78517 9.6136 1.74122 9.64043 1.69843 9.66963C1.65564 9.69863 1.6142 9.7298 1.5745 9.76314C1.53462 9.79628 1.49666 9.8316 1.46026 9.86849C1.42386 9.90558 1.38939 9.94444 1.35667 9.98489C1.32395 10.0253 1.29335 10.0676 1.26489 10.111C1.23623 10.1546 1.2097 10.1995 1.1855 10.2457C1.16129 10.2919 1.13922 10.3392 1.11966 10.3877C1.09991 10.4361 1.08249 10.4854 1.06758 10.5355C1.05267 10.5856 1.04028 10.6363 1.03021 10.6878C1.02014 10.7391 1.01259 10.791 1.00755 10.8431C1.00252 10.8954 1 10.9474 1 10.9999C1 11.0524 1.00252 11.1047 1.00755 11.1568C1.01259 11.2088 1.02014 11.2607 1.03021 11.312C1.04028 11.3635 1.05267 11.4142 1.06758 11.4643C1.08249 11.5146 1.09991 11.5638 1.11966 11.6123C1.13922 11.6606 1.16129 11.708 1.1855 11.7541C1.2097 11.8003 1.23623 11.8453 1.26489 11.8889C1.29335 11.9325 1.32395 11.9745 1.35667 12.015C1.38939 12.0554 1.42386 12.0943 1.46026 12.1314C1.49666 12.1684 1.53462 12.2036 1.5745 12.2367C1.6142 12.27 1.65564 12.3012 1.69843 12.3302C1.74122 12.3594 1.78517 12.3862 1.83068 12.4111C1.87599 12.4358 1.92246 12.4581 1.97009 12.4782C2.01753 12.4981 2.06594 12.5159 2.11532 12.5311C2.1645 12.5462 2.21426 12.5591 2.2648 12.5691C2.31534 12.5794 2.36607 12.5871 2.41738 12.5922C2.4685 12.5973 2.52001 12.5999 2.57132 12.5999C2.62282 12.5999 2.67414 12.5973 2.72545 12.5922C2.77657 12.5871 2.82749 12.5794 2.87803 12.5691C2.92837 12.5591 2.97833 12.5462 3.02751 12.5311C3.07689 12.5159 3.1253 12.4981 3.17274 12.4782C3.22037 12.4581 3.26684 12.4358 3.31215 12.4111C3.35746 12.3862 3.40161 12.3594 3.4444 12.3302C3.48719 12.3012 3.52844 12.27 3.56833 12.2367C3.60802 12.2036 3.64617 12.1684 3.68257 12.1314C3.71897 12.0943 3.75344 12.0554 3.78616 12.015C3.81869 11.9745 3.84948 11.9325 3.87794 11.8889C3.9066 11.8453 3.93293 11.8003 3.95733 11.7541C3.98153 11.708 4.00341 11.6606 4.02317 11.6123C4.04292 11.5638 4.06015 11.5146 4.07525 11.4643C4.09016 11.4142 4.10255 11.3635 4.11262 11.312C4.12269 11.2607 4.13024 11.2088 4.13528 11.1568C4.14031 11.1047 4.14283 11.0524 4.14283 10.9999C4.14283 10.9474 4.14031 10.8954 4.13528 10.8431C4.13024 10.791 4.12269 10.7391 4.11262 10.6878C4.10255 10.6363 4.09016 10.5856 4.07525 10.5355C4.06015 10.4854 4.04292 10.4361 4.02317 10.3875C4.00341 10.3392 3.98153 10.2919 3.95733 10.2457C3.93293 10.1995 3.9066 10.1546 3.87794 10.111C3.84948 10.0676 3.81869 10.0253 3.78616 9.98489C3.75344 9.94444 3.71897 9.90558 3.68257 9.86849C3.64617 9.8316 3.60802 9.79628 3.56833 9.76314C3.52844 9.7298 3.48719 9.69863 3.4444 9.66963C3.40161 9.64043 3.35746 9.6136 3.31215 9.58894C3.26684 9.56408 3.22037 9.54178 3.17274 9.52166C3.1253 9.50174 3.07689 9.48398 3.02751 9.46879C2.97833 9.4536 2.92837 9.44097 2.87803 9.43071C2.82749 9.42045 2.77657 9.41276 2.72545 9.40763C2.67414 9.4025 2.62282 9.39994 2.57132 9.39994ZM7.28566 10.1999C6.85115 10.1999 6.4999 10.5576 6.4999 10.9999C6.4999 11.4424 6.85115 11.7999 7.28566 11.7999H13.0603C14.2744 10.8007 15.8178 10.1999 17.5001 10.1999H7.28566ZM17.5001 11.7999C14.4624 11.7999 12 14.3072 12 17.3999C12 20.4927 14.4624 23 17.5001 23C20.5376 23 23 20.4927 23 17.3999C23 14.3072 20.5376 11.7999 17.5001 11.7999ZM17.5001 14.1999C17.9336 14.1999 18.2857 14.5576 18.2857 14.9999V16.5999H19.8572C20.2909 16.5999 20.6429 16.9575 20.6429 17.3999C20.6429 17.8424 20.2909 18.1999 19.8572 18.1999H18.2857V19.8C18.2857 20.2423 17.9336 20.6 17.5001 20.6C17.0664 20.6 16.7143 20.2423 16.7143 19.8V18.1999H15.1428C14.7091 18.1999 14.3571 17.8424 14.3571 17.3999C14.3571 16.9575 14.7091 16.5999 15.1428 16.5999H16.7143V14.9999C16.7143 14.5576 17.0664 14.1999 17.5001 14.1999ZM2.57132 15.7999C2.52001 15.7999 2.4685 15.8024 2.41738 15.8076C2.36607 15.8127 2.31534 15.8204 2.2648 15.8307C2.21426 15.8409 2.1645 15.8535 2.11532 15.8689C2.06594 15.8841 2.01753 15.9017 1.97009 15.9218C1.92246 15.9417 1.87599 15.9642 1.83068 15.9889C1.78517 16.0135 1.74122 16.0406 1.69843 16.0696C1.65564 16.0988 1.6142 16.1299 1.5745 16.1631C1.53462 16.1964 1.49666 16.2315 1.46026 16.2686C1.42386 16.3057 1.38939 16.3444 1.35667 16.3848C1.32395 16.4255 1.29335 16.4675 1.26489 16.5111C1.23623 16.5547 1.2097 16.5995 1.1855 16.6456C1.16129 16.692 1.13922 16.7391 1.11966 16.7877C1.09991 16.836 1.08249 16.8853 1.06758 16.9354C1.05267 16.9856 1.04028 17.0365 1.03021 17.0878C1.02014 17.1392 1.01259 17.1909 1.00755 17.243C1.00252 17.2953 1 17.3476 1 17.3999C1 17.4523 1.00252 17.5046 1.00755 17.5567C1.01259 17.609 1.02014 17.6607 1.03021 17.7122C1.04028 17.7635 1.05267 17.8142 1.06758 17.8645C1.08249 17.9146 1.09991 17.9639 1.11966 18.0122C1.13922 18.0606 1.16129 18.1079 1.1855 18.1541C1.2097 18.2004 1.23623 18.2452 1.26489 18.2888C1.29335 18.3324 1.32395 18.3744 1.35667 18.4149C1.38939 18.4555 1.42386 18.4942 1.46026 18.5313C1.49666 18.5684 1.53462 18.6035 1.5745 18.6368C1.6142 18.67 1.65564 18.7012 1.69843 18.7304C1.74122 18.7594 1.78517 18.7864 1.83068 18.811C1.87599 18.8357 1.92246 18.8582 1.97009 18.8781C2.01753 18.8982 2.06594 18.9158 2.11532 18.931C2.1645 18.9462 2.21426 18.959 2.2648 18.9693C2.31534 18.9793 2.36607 18.987 2.41738 18.9921C2.4685 18.9973 2.52001 18.9998 2.57132 18.9998C2.62282 18.9998 2.67414 18.9973 2.72545 18.9921C2.77657 18.987 2.82749 18.9793 2.87803 18.9693C2.92837 18.959 2.97833 18.9462 3.02751 18.931C3.07689 18.9158 3.1253 18.8982 3.17274 18.8781C3.22037 18.8582 3.26684 18.8357 3.31215 18.811C3.35746 18.7864 3.40161 18.7594 3.4444 18.7304C3.48719 18.7012 3.52844 18.67 3.56833 18.6368C3.60802 18.6035 3.64617 18.5684 3.68257 18.5313C3.71897 18.4942 3.75344 18.4555 3.78616 18.4149C3.81869 18.3744 3.84948 18.3324 3.87794 18.2888C3.9066 18.2452 3.93293 18.2004 3.95733 18.1541C3.98153 18.1079 4.00341 18.0606 4.02317 18.0122C4.04292 17.9639 4.06015 17.9146 4.07525 17.8645C4.09016 17.8142 4.10255 17.7635 4.11262 17.7122C4.12269 17.6607 4.13024 17.609 4.13528 17.5567C4.14031 17.5046 4.14283 17.4523 4.14283 17.3999C4.14283 17.3476 4.14031 17.2953 4.13528 17.243C4.13024 17.1909 4.12269 17.1392 4.11262 17.0878C4.10255 17.0365 4.09016 16.9856 4.07525 16.9354C4.06015 16.8853 4.04292 16.836 4.02317 16.7877C4.00341 16.7391 3.98153 16.692 3.95733 16.6456C3.93293 16.5995 3.9066 16.5547 3.87794 16.5111C3.84948 16.4675 3.81869 16.4255 3.78616 16.3848C3.75344 16.3444 3.71897 16.3057 3.68257 16.2686C3.64617 16.2315 3.60802 16.1964 3.56833 16.1631C3.52844 16.1299 3.48719 16.0988 3.4444 16.0696C3.40161 16.0406 3.35746 16.0135 3.31215 15.9889C3.26684 15.9642 3.22037 15.9417 3.17274 15.9218C3.1253 15.9017 3.07689 15.8841 3.02751 15.8689C2.97833 15.8535 2.92837 15.8409 2.87803 15.8307C2.82749 15.8204 2.77657 15.8127 2.72545 15.8076C2.67414 15.8024 2.62282 15.7999 2.57132 15.7999ZM7.28566 16.5999C6.85115 16.5999 6.4999 16.9575 6.4999 17.3999C6.4999 17.8424 6.85115 18.1999 7.28566 18.1999H10.4746C10.4455 17.9367 10.4285 17.6703 10.4285 17.3999C10.4285 17.1296 10.4455 16.863 10.4746 16.5999H7.28566Z" fill="#00B3D1"/>
</svg>
