<svg width="18" height="18" viewBox="0 0 18 18" fill="none" xmlns="http://www.w3.org/2000/svg">
<path fill-rule="evenodd" clip-rule="evenodd" d="M7.56753 2.65542C8.93474 2.34652 10.3652 2.48785 11.6455 3.05833C12.15 3.28311 12.7412 3.05637 12.9659 2.5519C13.1907 2.04743 12.964 1.45625 12.4595 1.23147C10.7852 0.485457 8.91466 0.300644 7.12676 0.704595C5.33887 1.10855 3.72945 2.07962 2.53854 3.47298C1.34763 4.86635 0.639028 6.60735 0.518425 8.43634C0.397822 10.2653 0.871676 12.0843 1.86932 13.622C2.86696 15.1597 4.33493 16.3337 6.0543 16.9689C7.77367 17.6041 9.65232 17.6665 11.4101 17.1468C13.1678 16.6271 14.7104 15.5531 15.8079 14.085C16.9054 12.6169 17.499 10.8334 17.5 9.00047L17.5 8.9999V8.3099C17.5 7.75762 17.0523 7.3099 16.5 7.3099C15.9477 7.3099 15.5 7.75762 15.5 8.3099V8.99933C15.4992 10.401 15.0453 11.7649 14.2061 12.8875C13.3668 14.0102 12.1871 14.8314 10.843 15.2289C9.49883 15.6263 8.06222 15.5786 6.74741 15.0928C5.43259 14.6071 4.31003 13.7093 3.54713 12.5334C2.78422 11.3576 2.42187 9.96657 2.51409 8.56793C2.60632 7.1693 3.14819 5.83794 4.05888 4.77243C4.96958 3.70691 6.20031 2.96433 7.56753 2.65542ZM17.2075 3.70665C17.5978 3.31593 17.5975 2.68277 17.2068 2.29244C16.816 1.90211 16.1829 1.90243 15.7926 2.29315L8.99966 9.09283L7.45712 7.55029C7.06659 7.15977 6.43343 7.15977 6.0429 7.55029C5.65238 7.94082 5.65238 8.57398 6.0429 8.96451L8.2929 11.2145C8.4805 11.4021 8.73496 11.5075 9.00026 11.5074C9.26556 11.5073 9.51997 11.4018 9.70747 11.2142L17.2075 3.70665Z" fill="#04760F"/>
</svg>
