<svg width="24" height="24" viewBox="0 0 24 24" fill="none" xmlns="http://www.w3.org/2000/svg">
<path fill-rule="evenodd" clip-rule="evenodd" d="M5.2 1.4C5.38885 1.14819 5.68524 1 6 1H18C18.3148 1 18.6111 1.14819 18.8 1.4L21.7943 5.39236C21.9157 5.55079 21.9907 5.74659 21.9992 5.95951C21.9997 5.97298 22 5.98648 22 6V20C22 20.7957 21.6839 21.5587 21.1213 22.1213C20.5587 22.6839 19.7957 23 19 23H5C4.20435 23 3.44129 22.6839 2.87868 22.1213C2.31607 21.5587 2 20.7957 2 20V6.00001V6C2 5.77145 2.07667 5.56081 2.2057 5.3924L5.2 1.4ZM17.5 3L19 5.00001H4.99999L6.5 3H17.5ZM4 20V7.00001H20V20C20 20.2652 19.8946 20.5196 19.7071 20.7071C19.5196 20.8946 19.2652 21 19 21H5C4.73478 21 4.48043 20.8946 4.29289 20.7071C4.10536 20.5196 4 20.2652 4 20ZM8.99999 10C8.99999 9.44773 8.55227 9.00002 7.99999 9.00002C7.4477 9.00002 6.99999 9.44773 6.99999 10C6.99999 11.3261 7.52677 12.5979 8.46446 13.5356C9.40214 14.4732 10.6739 15 12 15C13.3261 15 14.5978 14.4732 15.5355 13.5356C16.4732 12.5979 17 11.3261 17 10C17 9.44773 16.5523 9.00002 16 9.00002C15.4477 9.00002 15 9.44773 15 10C15 10.7957 14.6839 11.5587 14.1213 12.1213C13.5587 12.6839 12.7956 13 12 13C11.2043 13 10.4413 12.6839 9.87867 12.1213C9.31606 11.5587 8.99999 10.7957 8.99999 10Z" fill="black"/>
</svg>
