<svg width="24" height="24" viewBox="0 0 24 24" fill="none" xmlns="http://www.w3.org/2000/svg">
<path fill-rule="evenodd" clip-rule="evenodd" d="M13.0001 2C13.0001 1.44772 12.5524 1 12.0001 1C11.4478 1 11.0001 1.44772 11.0001 2V12C11.0001 12.5523 11.4478 13 12.0001 13C12.5524 13 13.0001 12.5523 13.0001 12V2ZM6.33734 7.34699C6.7278 6.9564 6.7277 6.32323 6.33711 5.93277C5.94653 5.54231 5.31336 5.54242 4.9229 5.933C3.5247 7.33166 2.57262 9.11349 2.18703 11.0532C1.80144 12.9929 1.99967 15.0034 2.75664 16.8305C3.51361 18.6576 4.79534 20.2192 6.43976 21.3178C8.08418 22.4165 10.0174 23.0029 11.9951 23.0029C13.9728 23.0029 15.9061 22.4165 17.5505 21.3178C19.1949 20.2192 20.4766 18.6576 21.2336 16.8305C21.9906 15.0034 22.1888 12.9929 21.8032 11.0532C21.4176 9.11349 20.4655 7.33166 19.0673 5.933C18.6769 5.54242 18.0437 5.54231 17.6531 5.93277C17.2625 6.32323 17.2624 6.9564 17.6529 7.34699C18.7715 8.46591 19.5331 9.89138 19.8416 11.4432C20.1501 12.9949 19.9915 14.6033 19.3859 16.065C18.7803 17.5266 17.7549 18.7759 16.4394 19.6549C15.1239 20.5338 13.5773 21.0029 11.9951 21.0029C10.413 21.0029 8.86637 20.5338 7.55083 19.6549C6.23529 18.7759 5.20991 17.5266 4.60434 16.065C3.99876 14.6033 3.84018 12.9949 4.14865 11.4432C4.45712 9.89138 5.21879 8.46591 6.33734 7.34699Z" fill="black"/>
</svg>
