<svg width="24" height="24" viewBox="0 0 24 24" fill="none" xmlns="http://www.w3.org/2000/svg">
<path fill-rule="evenodd" clip-rule="evenodd" d="M2.99993 6C2.99993 5.45228 3.45221 5 3.99993 5H19.9999C20.5476 5 20.9999 5.45228 20.9999 6V6.4338L11.9999 11.8338L2.99993 6.43383V6ZM0.999927 6.98056C0.999699 6.9929 0.999699 7.00524 0.999927 7.01756V18C0.999927 19.6523 2.34764 21 3.99993 21H19.9999C21.6522 21 22.9999 19.6523 22.9999 18V7.01518C23.0001 7.00444 23.0001 6.99369 22.9999 6.98293V6C22.9999 4.34772 21.6522 3 19.9999 3H3.99993C2.34764 3 0.999927 4.34772 0.999927 6V6.98056ZM20.9999 8.76618V18C20.9999 18.5477 20.5476 19 19.9999 19H3.99993C3.45221 19 2.99993 18.5477 2.99993 18V8.76621L11.4854 13.8575C11.8021 14.0475 12.1977 14.0475 12.5144 13.8575L20.9999 8.76618Z" fill="#04764E"/>
</svg>
