<svg xmlns="http://www.w3.org/2000/svg" xmlns:xlink="http://www.w3.org/1999/xlink" version="1.1" width="873" height="725" viewBox="0 0 873 725" xml:space="preserve">
<desc>Created with Fabric.js 3.6.3</desc>
<defs>
</defs>
<g transform="matrix(1 0 0 1 462 365)"  >
<g style=""   >
		<g transform="matrix(1.33 0 0 1.33 -173.49 165.21)" clip-path="url(#CLIPPATH_8)"  >
<clipPath id="CLIPPATH_8" >
	<path transform="matrix(1 0 0 1 0.79 0.09) translate(-590.68, -529)" id="id1" d="M 375.351562 382 L 806 382 L 806 676 L 375.351562 676 Z M 375.351562 382" stroke-linecap="round" />
</clipPath>
<path style="stroke: none; stroke-width: 1; stroke-dasharray: none; stroke-linecap: butt; stroke-dashoffset: 0; stroke-linejoin: miter; stroke-miterlimit: 4; fill: rgb(255,255,255); fill-rule: nonzero; opacity: 1;"  transform=" translate(-589.88, -528.91)" d="M 729.195312 675.210938 L 450.578125 675.210938 C 449.324219 675.210938 448.070312 675.179688 446.816406 675.117188 C 445.566406 675.054688 444.316406 674.960938 443.070312 674.835938 C 441.820312 674.714844 440.578125 674.558594 439.335938 674.375 C 438.097656 674.191406 436.863281 673.976562 435.632812 673.730469 C 434.402344 673.484375 433.179688 673.210938 431.964844 672.902344 C 430.75 672.597656 429.542969 672.265625 428.339844 671.898438 C 427.140625 671.535156 425.953125 671.140625 424.773438 670.71875 C 423.59375 670.296875 422.421875 669.84375 421.265625 669.363281 C 420.105469 668.882812 418.960938 668.375 417.828125 667.839844 C 416.695312 667.300781 415.574219 666.738281 414.46875 666.144531 C 413.363281 665.554688 412.273438 664.9375 411.199219 664.292969 C 410.125 663.648438 409.066406 662.976562 408.023438 662.28125 C 406.980469 661.582031 405.957031 660.859375 404.949219 660.113281 C 403.941406 659.367188 402.953125 658.59375 401.984375 657.800781 C 401.015625 657.003906 400.066406 656.183594 399.136719 655.34375 C 398.210938 654.5 397.300781 653.636719 396.414062 652.75 C 395.527344 651.863281 394.664062 650.957031 393.824219 650.027344 C 392.980469 649.097656 392.160156 648.148438 391.367188 647.179688 C 390.570312 646.210938 389.800781 645.222656 389.054688 644.214844 C 388.304688 643.207031 387.582031 642.183594 386.886719 641.140625 C 386.191406 640.097656 385.519531 639.039062 384.875 637.964844 C 384.230469 636.886719 383.613281 635.796875 383.019531 634.691406 C 382.429688 633.585938 381.867188 632.464844 381.328125 631.332031 C 380.792969 630.199219 380.285156 629.054688 379.804688 627.894531 C 379.324219 626.738281 378.871094 625.566406 378.449219 624.386719 C 378.027344 623.207031 377.632812 622.015625 377.269531 620.816406 C 376.90625 619.617188 376.570312 618.410156 376.265625 617.191406 C 375.960938 615.976562 375.683594 614.753906 375.4375 613.523438 C 375.195312 612.292969 374.980469 611.058594 374.792969 609.820312 C 374.609375 608.578125 374.453125 607.335938 374.332031 606.085938 C 374.207031 604.839844 374.113281 603.589844 374.050781 602.335938 C 373.988281 601.085938 373.957031 599.832031 373.957031 598.578125 L 373.957031 570.710938 C 373.960938 567.632812 374.039062 564.558594 374.195312 561.484375 C 374.347656 558.410156 374.578125 555.34375 374.882812 552.28125 C 375.1875 549.21875 375.566406 546.164062 376.023438 543.121094 C 376.476562 540.078125 377.003906 537.046875 377.609375 534.027344 C 378.210938 531.011719 378.886719 528.007812 379.636719 525.023438 C 380.386719 522.039062 381.210938 519.074219 382.105469 516.132812 C 383 513.1875 383.96875 510.265625 385.007812 507.371094 C 386.042969 504.472656 387.152344 501.601562 388.332031 498.761719 C 389.511719 495.917969 390.761719 493.105469 392.078125 490.324219 C 393.394531 487.542969 394.777344 484.796875 396.230469 482.082031 C 397.679688 479.371094 399.199219 476.695312 400.78125 474.054688 C 402.363281 471.414062 404.011719 468.816406 405.71875 466.257812 C 407.429688 463.699219 409.203125 461.183594 411.035156 458.714844 C 412.871094 456.242188 414.761719 453.816406 416.714844 451.4375 C 418.667969 449.058594 420.675781 446.730469 422.742188 444.449219 C 424.808594 442.171875 426.929688 439.941406 429.105469 437.765625 C 431.28125 435.589844 433.507812 433.46875 435.789062 431.402344 C 438.070312 429.335938 440.398438 427.324219 442.777344 425.371094 C 445.152344 423.421875 447.578125 421.527344 450.050781 419.691406 C 452.519531 417.859375 455.035156 416.085938 457.59375 414.375 C 460.148438 412.667969 462.75 411.019531 465.386719 409.4375 C 468.023438 407.851562 470.699219 406.335938 473.414062 404.882812 C 476.125 403.433594 478.875 402.046875 481.65625 400.730469 C 484.433594 399.414062 487.246094 398.164062 490.089844 396.984375 C 492.929688 395.804688 495.800781 394.695312 498.695312 393.65625 C 501.59375 392.621094 504.511719 391.652344 507.457031 390.757812 C 510.398438 389.863281 513.363281 389.039062 516.347656 388.289062 C 519.332031 387.539062 522.332031 386.863281 525.347656 386.257812 C 528.367188 385.65625 531.398438 385.125 534.441406 384.671875 C 537.484375 384.21875 540.535156 383.839844 543.597656 383.53125 C 546.660156 383.226562 549.726562 383 552.800781 382.84375 C 555.871094 382.691406 558.945312 382.609375 562.023438 382.605469 L 617.746094 382.605469 C 620.824219 382.609375 623.898438 382.691406 626.972656 382.84375 C 630.046875 383 633.113281 383.226562 636.175781 383.53125 C 639.234375 383.839844 642.289062 384.21875 645.332031 384.671875 C 648.375 385.125 651.40625 385.65625 654.421875 386.257812 C 657.4375 386.863281 660.441406 387.539062 663.421875 388.289062 C 666.40625 389.039062 669.371094 389.863281 672.316406 390.757812 C 675.257812 391.652344 678.179688 392.621094 681.074219 393.65625 C 683.972656 394.695312 686.839844 395.804688 689.683594 396.984375 C 692.523438 398.164062 695.335938 399.414062 698.117188 400.730469 C 700.898438 402.046875 703.644531 403.433594 706.355469 404.882812 C 709.070312 406.335938 711.746094 407.851562 714.382812 409.4375 C 717.023438 411.019531 719.621094 412.667969 722.179688 414.375 C 724.738281 416.085938 727.25 417.859375 729.722656 419.691406 C 732.191406 421.527344 734.617188 423.421875 736.996094 425.371094 C 739.375 427.324219 741.703125 429.335938 743.980469 431.402344 C 746.261719 433.46875 748.488281 435.589844 750.664062 437.765625 C 752.839844 439.941406 754.960938 442.171875 757.027344 444.449219 C 759.09375 446.730469 761.105469 449.058594 763.054688 451.4375 C 765.007812 453.816406 766.902344 456.242188 768.734375 458.714844 C 770.570312 461.183594 772.339844 463.699219 774.050781 466.257812 C 775.761719 468.816406 777.40625 471.414062 778.988281 474.054688 C 780.574219 476.695312 782.089844 479.371094 783.542969 482.082031 C 784.992188 484.796875 786.378906 487.542969 787.695312 490.324219 C 789.011719 493.105469 790.257812 495.917969 791.4375 498.761719 C 792.617188 501.601562 793.726562 504.472656 794.765625 507.371094 C 795.804688 510.265625 796.769531 513.1875 797.664062 516.132812 C 798.5625 519.074219 799.382812 522.039062 800.132812 525.023438 C 800.882812 528.007812 801.558594 531.011719 802.164062 534.027344 C 802.765625 537.046875 803.292969 540.078125 803.75 543.121094 C 804.203125 546.164062 804.582031 549.21875 804.886719 552.28125 C 805.191406 555.34375 805.421875 558.410156 805.578125 561.484375 C 805.730469 564.558594 805.808594 567.632812 805.8125 570.710938 L 805.8125 598.578125 C 805.8125 599.832031 805.78125 601.085938 805.71875 602.335938 C 805.65625 603.589844 805.5625 604.839844 805.441406 606.085938 C 805.316406 607.335938 805.160156 608.578125 804.976562 609.820312 C 804.792969 611.058594 804.578125 612.292969 804.332031 613.523438 C 804.085938 614.753906 803.8125 615.976562 803.507812 617.191406 C 803.203125 618.410156 802.867188 619.617188 802.503906 620.816406 C 802.136719 622.015625 801.742188 623.207031 801.320312 624.386719 C 800.898438 625.566406 800.445312 626.738281 799.964844 627.894531 C 799.484375 629.054688 798.976562 630.199219 798.441406 631.332031 C 797.90625 632.464844 797.339844 633.585938 796.75 634.691406 C 796.160156 635.796875 795.539062 636.886719 794.894531 637.964844 C 794.25 639.039062 793.582031 640.097656 792.882812 641.140625 C 792.1875 642.183594 791.464844 643.207031 790.71875 644.214844 C 789.972656 645.222656 789.199219 646.210938 788.40625 647.179688 C 787.609375 648.148438 786.789062 649.097656 785.949219 650.027344 C 785.105469 650.957031 784.242188 651.863281 783.355469 652.75 C 782.46875 653.636719 781.5625 654.5 780.632812 655.34375 C 779.703125 656.183594 778.753906 657.003906 777.785156 657.800781 C 776.816406 658.59375 775.828125 659.367188 774.820312 660.113281 C 773.816406 660.859375 772.789062 661.582031 771.75 662.28125 C 770.707031 662.976562 769.648438 663.648438 768.574219 664.292969 C 767.496094 664.9375 766.40625 665.554688 765.300781 666.144531 C 764.195312 666.738281 763.078125 667.300781 761.941406 667.839844 C 760.808594 668.375 759.664062 668.882812 758.507812 669.363281 C 757.347656 669.84375 756.179688 670.296875 755 670.71875 C 753.820312 671.140625 752.628906 671.535156 751.429688 671.898438 C 750.230469 672.265625 749.023438 672.597656 747.804688 672.902344 C 746.589844 673.210938 745.367188 673.484375 744.136719 673.730469 C 742.910156 673.976562 741.671875 674.191406 740.433594 674.375 C 739.195312 674.558594 737.949219 674.714844 736.703125 674.835938 C 735.453125 674.960938 734.203125 675.054688 732.953125 675.117188 C 731.699219 675.179688 730.449219 675.210938 729.195312 675.210938 Z M 562.023438 424.40625 C 559.628906 424.410156 557.238281 424.472656 554.847656 424.59375 C 552.457031 424.710938 550.074219 424.890625 547.691406 425.128906 C 545.308594 425.363281 542.9375 425.660156 540.570312 426.011719 C 538.203125 426.367188 535.84375 426.777344 533.5 427.246094 C 531.152344 427.714844 528.816406 428.242188 526.496094 428.824219 C 524.175781 429.410156 521.871094 430.046875 519.582031 430.746094 C 517.292969 431.441406 515.019531 432.195312 512.769531 433 C 510.515625 433.808594 508.285156 434.671875 506.074219 435.589844 C 503.863281 436.507812 501.675781 437.476562 499.511719 438.5 C 497.351562 439.527344 495.214844 440.601562 493.105469 441.730469 C 490.992188 442.863281 488.914062 444.042969 486.859375 445.273438 C 484.808594 446.503906 482.789062 447.785156 480.796875 449.117188 C 478.808594 450.445312 476.851562 451.824219 474.929688 453.25 C 473.007812 454.675781 471.125 456.148438 469.273438 457.667969 C 467.425781 459.1875 465.613281 460.75 463.839844 462.359375 C 462.066406 463.964844 460.332031 465.613281 458.640625 467.308594 C 456.949219 469 455.300781 470.734375 453.691406 472.507812 C 452.085938 474.28125 450.523438 476.09375 449.003906 477.941406 C 447.484375 479.792969 446.011719 481.679688 444.585938 483.601562 C 443.160156 485.523438 441.78125 487.480469 440.453125 489.46875 C 439.121094 491.457031 437.84375 493.480469 436.609375 495.53125 C 435.378906 497.585938 434.199219 499.667969 433.070312 501.777344 C 431.941406 503.886719 430.867188 506.023438 429.839844 508.1875 C 428.816406 510.351562 427.847656 512.539062 426.929688 514.75 C 426.011719 516.960938 425.148438 519.191406 424.34375 521.445312 C 423.535156 523.699219 422.78125 525.96875 422.085938 528.257812 C 421.390625 530.550781 420.75 532.855469 420.167969 535.175781 C 419.582031 537.5 419.058594 539.832031 418.589844 542.179688 C 418.121094 544.527344 417.707031 546.882812 417.355469 549.25 C 417 551.617188 416.707031 553.992188 416.46875 556.375 C 416.234375 558.757812 416.054688 561.144531 415.933594 563.535156 C 415.8125 565.925781 415.753906 568.316406 415.75 570.710938 L 415.75 598.578125 C 415.75 599.71875 415.808594 600.855469 415.921875 601.988281 C 416.035156 603.125 416.203125 604.25 416.429688 605.367188 C 416.652344 606.488281 416.929688 607.589844 417.261719 608.683594 C 417.59375 609.773438 417.980469 610.84375 418.414062 611.898438 C 418.851562 612.953125 419.339844 613.980469 419.878906 614.988281 C 420.417969 615.992188 421.003906 616.96875 421.636719 617.917969 C 422.269531 618.863281 422.949219 619.777344 423.671875 620.660156 C 424.394531 621.542969 425.160156 622.386719 425.96875 623.191406 C 426.773438 624 427.617188 624.761719 428.496094 625.488281 C 429.378906 626.210938 430.292969 626.890625 431.242188 627.523438 C 432.1875 628.15625 433.164062 628.742188 434.171875 629.28125 C 435.175781 629.820312 436.203125 630.308594 437.257812 630.746094 C 438.3125 631.183594 439.382812 631.566406 440.472656 631.898438 C 441.5625 632.230469 442.667969 632.507812 443.785156 632.734375 C 444.90625 632.957031 446.03125 633.125 447.164062 633.238281 C 448.300781 633.351562 449.4375 633.410156 450.578125 633.410156 L 729.195312 633.410156 C 730.335938 633.410156 731.472656 633.351562 732.605469 633.238281 C 733.742188 633.125 734.867188 632.957031 735.984375 632.734375 C 737.101562 632.507812 738.207031 632.230469 739.296875 631.898438 C 740.386719 631.566406 741.460938 631.183594 742.511719 630.746094 C 743.566406 630.308594 744.59375 629.820312 745.601562 629.28125 C 746.605469 628.742188 747.582031 628.15625 748.53125 627.523438 C 749.476562 626.890625 750.390625 626.210938 751.273438 625.488281 C 752.15625 624.761719 753 624 753.804688 623.191406 C 754.609375 622.386719 755.375 621.542969 756.097656 620.660156 C 756.820312 619.78125 757.5 618.863281 758.132812 617.917969 C 758.769531 616.96875 759.355469 615.992188 759.890625 614.988281 C 760.429688 613.980469 760.917969 612.953125 761.355469 611.898438 C 761.792969 610.847656 762.175781 609.773438 762.507812 608.683594 C 762.839844 607.589844 763.117188 606.488281 763.34375 605.367188 C 763.566406 604.25 763.734375 603.125 763.847656 601.988281 C 763.960938 600.855469 764.019531 599.71875 764.019531 598.578125 L 764.019531 570.710938 C 764.019531 568.316406 763.957031 565.925781 763.835938 563.535156 C 763.71875 561.144531 763.539062 558.757812 763.300781 556.375 C 763.066406 553.992188 762.769531 551.617188 762.417969 549.25 C 762.0625 546.882812 761.652344 544.527344 761.183594 542.179688 C 760.714844 539.832031 760.1875 537.5 759.605469 535.175781 C 759.019531 532.855469 758.382812 530.550781 757.683594 528.257812 C 756.988281 525.96875 756.238281 523.699219 755.429688 521.445312 C 754.621094 519.191406 753.757812 516.960938 752.84375 514.75 C 751.925781 512.539062 750.953125 510.351562 749.929688 508.1875 C 748.90625 506.023438 747.828125 503.886719 746.699219 501.777344 C 745.570312 499.667969 744.390625 497.585938 743.160156 495.53125 C 741.929688 493.480469 740.648438 491.457031 739.316406 489.46875 C 737.988281 487.480469 736.609375 485.523438 735.183594 483.601562 C 733.757812 481.679688 732.285156 479.792969 730.765625 477.941406 C 729.25 476.09375 727.6875 474.28125 726.078125 472.507812 C 724.472656 470.734375 722.820312 469 721.128906 467.308594 C 719.4375 465.613281 717.703125 463.964844 715.933594 462.359375 C 714.160156 460.75 712.347656 459.1875 710.496094 457.667969 C 708.648438 456.148438 706.761719 454.675781 704.839844 453.25 C 702.917969 451.824219 700.960938 450.445312 698.972656 449.117188 C 696.984375 447.785156 694.964844 446.503906 692.910156 445.273438 C 690.859375 444.042969 688.777344 442.863281 686.667969 441.730469 C 684.558594 440.601562 682.421875 439.527344 680.257812 438.5 C 678.09375 437.476562 675.910156 436.507812 673.699219 435.589844 C 671.488281 434.671875 669.257812 433.808594 667.003906 433 C 664.75 432.195312 662.480469 431.441406 660.191406 430.746094 C 657.898438 430.046875 655.59375 429.410156 653.273438 428.824219 C 650.953125 428.242188 648.617188 427.714844 646.273438 427.246094 C 643.925781 426.777344 641.570312 426.367188 639.203125 426.011719 C 636.835938 425.660156 634.460938 425.363281 632.078125 425.128906 C 629.699219 424.890625 627.3125 424.710938 624.921875 424.59375 C 622.53125 424.472656 620.140625 424.410156 617.746094 424.40625 Z M 562.023438 424.40625" stroke-linecap="round" />
</g>
		<g transform="matrix(1.33 0 0 1.33 216.83 202.39)"  >
<path style="stroke: none; stroke-width: 1; stroke-dasharray: none; stroke-linecap: butt; stroke-dashoffset: 0; stroke-linejoin: miter; stroke-miterlimit: 4; fill: rgb(255,255,255); fill-rule: nonzero; opacity: 1;"  transform=" translate(-882.62, -556.79)" d="M 952.085938 675.210938 L 784.917969 675.210938 C 778.167969 675.214844 771.53125 674.335938 765.015625 672.574219 C 758.496094 670.808594 752.324219 668.222656 746.496094 664.816406 C 745.921875 664.464844 745.363281 664.082031 744.824219 663.675781 C 744.289062 663.269531 743.769531 662.835938 743.273438 662.378906 C 742.777344 661.921875 742.304688 661.441406 741.855469 660.9375 C 741.402344 660.433594 740.980469 659.910156 740.582031 659.363281 C 740.179688 658.820312 739.808594 658.257812 739.464844 657.675781 C 739.121094 657.09375 738.804688 656.5 738.519531 655.886719 C 738.230469 655.277344 737.976562 654.652344 737.75 654.015625 C 737.523438 653.378906 737.328125 652.734375 737.164062 652.078125 C 737 651.421875 736.867188 650.761719 736.769531 650.09375 C 736.667969 649.425781 736.601562 648.753906 736.566406 648.082031 C 736.53125 647.40625 736.53125 646.730469 736.5625 646.058594 C 736.59375 645.382812 736.65625 644.710938 736.75 644.042969 C 736.847656 643.375 736.976562 642.710938 737.136719 642.054688 C 737.296875 641.398438 737.488281 640.753906 737.710938 640.117188 C 737.933594 639.476562 738.183594 638.851562 738.46875 638.238281 C 738.75 637.625 739.0625 637.027344 739.40625 636.445312 C 739.746094 635.863281 740.113281 635.296875 740.511719 634.75 C 740.90625 634.203125 741.328125 633.679688 741.777344 633.171875 C 742.222656 632.664062 742.691406 632.183594 743.1875 631.722656 C 743.679688 631.261719 744.195312 630.824219 744.730469 630.414062 C 745.269531 630.003906 745.824219 629.621094 746.394531 629.265625 C 746.96875 628.90625 747.558594 628.578125 748.164062 628.28125 C 748.769531 627.980469 749.386719 627.710938 750.019531 627.472656 C 750.648438 627.230469 751.289062 627.023438 751.941406 626.84375 C 752.59375 626.667969 753.25 626.523438 753.917969 626.40625 C 754.582031 626.292969 755.253906 626.214844 755.925781 626.164062 C 756.597656 626.117188 757.273438 626.097656 757.949219 626.117188 C 758.625 626.132812 759.296875 626.183594 759.964844 626.261719 C 760.636719 626.34375 761.300781 626.460938 761.960938 626.605469 C 762.621094 626.75 763.269531 626.929688 763.910156 627.140625 C 764.554688 627.347656 765.183594 627.585938 765.804688 627.859375 C 766.421875 628.128906 767.027344 628.429688 767.617188 628.757812 C 770.246094 630.273438 773.03125 631.425781 775.960938 632.214844 C 778.894531 633.003906 781.878906 633.402344 784.917969 633.410156 L 952.085938 633.410156 C 954.351562 633.429688 956.59375 633.222656 958.8125 632.789062 C 961.035156 632.355469 963.191406 631.703125 965.28125 630.835938 C 967.371094 629.964844 969.351562 628.894531 971.226562 627.625 C 973.101562 626.359375 974.828125 624.914062 976.410156 623.296875 C 978.078125 621.699219 979.570312 619.953125 980.882812 618.054688 C 982.195312 616.15625 983.304688 614.144531 984.207031 612.019531 C 985.109375 609.894531 985.789062 607.699219 986.246094 605.433594 C 986.703125 603.171875 986.925781 600.886719 986.914062 598.578125 C 986.910156 595.667969 986.796875 592.761719 986.578125 589.863281 C 986.359375 586.960938 986.035156 584.074219 985.605469 581.195312 C 985.171875 578.320312 984.636719 575.460938 983.996094 572.625 C 983.355469 569.785156 982.609375 566.976562 981.761719 564.191406 C 980.914062 561.410156 979.964844 558.664062 978.914062 555.949219 C 977.863281 553.238281 976.714844 550.566406 975.46875 547.9375 C 974.222656 545.308594 972.882812 542.730469 971.445312 540.199219 C 970.007812 537.671875 968.480469 535.199219 966.863281 532.78125 C 965.246094 530.363281 963.539062 528.007812 961.75 525.714844 C 959.957031 523.425781 958.085938 521.203125 956.128906 519.046875 C 954.175781 516.894531 952.144531 514.8125 950.035156 512.808594 C 947.929688 510.804688 945.75 508.878906 943.5 507.035156 C 941.25 505.191406 938.9375 503.433594 936.558594 501.757812 C 934.179688 500.085938 931.742188 498.5 929.246094 497.007812 C 926.75 495.511719 924.203125 494.109375 921.605469 492.804688 C 919.007812 491.496094 916.367188 490.285156 913.679688 489.171875 C 910.992188 488.058594 908.265625 487.046875 905.503906 486.136719 C 902.742188 485.222656 899.949219 484.414062 897.128906 483.707031 C 894.308594 483 891.464844 482.398438 888.597656 481.898438 C 885.734375 481.402344 882.851562 481.011719 879.957031 480.722656 C 877.066406 480.4375 874.164062 480.257812 871.253906 480.1875 C 868.347656 480.113281 865.441406 480.148438 862.535156 480.289062 C 859.632812 480.433594 856.734375 480.679688 853.847656 481.035156 C 850.960938 481.390625 848.09375 481.851562 845.238281 482.414062 C 842.386719 482.980469 839.558594 483.652344 836.753906 484.425781 C 833.949219 485.199219 831.179688 486.074219 828.4375 487.054688 C 825.699219 488.03125 823 489.109375 820.339844 490.285156 C 817.679688 491.460938 815.066406 492.734375 812.5 494.101562 C 809.933594 495.472656 807.421875 496.933594 804.960938 498.488281 C 802.503906 500.039062 800.105469 501.683594 797.765625 503.414062 C 795.429688 505.140625 793.15625 506.957031 790.953125 508.855469 C 788.746094 510.75 786.613281 512.726562 784.554688 514.78125 C 784.066406 515.265625 783.558594 515.726562 783.023438 516.164062 C 782.492188 516.597656 781.941406 517.007812 781.367188 517.390625 C 780.796875 517.769531 780.207031 518.125 779.597656 518.449219 C 778.992188 518.773438 778.371094 519.070312 777.738281 519.332031 C 777.101562 519.597656 776.457031 519.832031 775.796875 520.035156 C 775.140625 520.234375 774.472656 520.40625 773.800781 520.542969 C 773.125 520.679688 772.445312 520.78125 771.761719 520.855469 C 771.078125 520.925781 770.390625 520.964844 769.703125 520.96875 C 769.015625 520.972656 768.328125 520.941406 767.644531 520.882812 C 766.957031 520.820312 766.277344 520.722656 765.601562 520.59375 C 764.925781 520.46875 764.257812 520.304688 763.597656 520.113281 C 762.9375 519.921875 762.285156 519.695312 761.648438 519.4375 C 761.011719 519.183594 760.386719 518.894531 759.773438 518.578125 C 759.164062 518.261719 758.570312 517.917969 757.992188 517.542969 C 757.414062 517.167969 756.859375 516.765625 756.320312 516.335938 C 755.78125 515.910156 755.265625 515.453125 754.769531 514.976562 C 754.285156 514.503906 753.828125 514.003906 753.390625 513.488281 C 752.957031 512.96875 752.546875 512.429688 752.164062 511.867188 C 751.78125 511.308594 751.429688 510.730469 751.101562 510.136719 C 750.777344 509.542969 750.480469 508.933594 750.214844 508.308594 C 749.953125 507.6875 749.71875 507.050781 749.515625 506.40625 C 749.3125 505.757812 749.140625 505.101562 749.003906 504.441406 C 748.867188 503.777344 748.761719 503.105469 748.691406 502.433594 C 748.617188 501.757812 748.578125 501.082031 748.574219 500.40625 C 748.570312 499.726562 748.597656 499.050781 748.660156 498.378906 C 748.71875 497.703125 748.816406 497.03125 748.941406 496.367188 C 749.070312 495.699219 749.230469 495.042969 749.421875 494.394531 C 749.617188 493.742188 749.839844 493.105469 750.097656 492.476562 C 750.351562 491.851562 750.636719 491.238281 750.953125 490.636719 C 751.269531 490.039062 751.617188 489.457031 751.988281 488.890625 C 752.363281 488.324219 752.761719 487.78125 753.191406 487.253906 C 753.617188 486.726562 754.070312 486.222656 754.546875 485.742188 L 769.316406 500.511719 L 754.6875 485.605469 C 757.46875 482.8125 760.34375 480.125 763.324219 477.546875 C 766.300781 474.964844 769.367188 472.5 772.527344 470.144531 C 775.6875 467.789062 778.929688 465.554688 782.253906 463.441406 C 785.578125 461.324219 788.972656 459.335938 792.445312 457.472656 C 795.914062 455.605469 799.449219 453.871094 803.046875 452.269531 C 806.644531 450.664062 810.296875 449.195312 814.003906 447.859375 C 817.710938 446.523438 821.460938 445.328125 825.253906 444.269531 C 829.050781 443.210938 832.878906 442.292969 836.742188 441.519531 C 840.605469 440.742188 844.488281 440.109375 848.398438 439.617188 C 852.308594 439.128906 856.230469 438.785156 860.164062 438.582031 C 864.097656 438.382812 868.035156 438.328125 871.972656 438.414062 C 875.910156 438.503906 879.839844 438.738281 883.761719 439.117188 C 887.683594 439.496094 891.585938 440.019531 895.46875 440.6875 C 899.351562 441.351562 903.203125 442.160156 907.027344 443.113281 C 910.847656 444.0625 914.632812 445.152344 918.375 446.382812 C 922.117188 447.613281 925.808594 448.976562 929.453125 450.480469 C 933.09375 451.980469 936.675781 453.613281 940.199219 455.378906 C 943.71875 457.144531 947.171875 459.039062 950.554688 461.058594 C 953.9375 463.078125 957.242188 465.21875 960.464844 467.484375 C 963.691406 469.746094 966.828125 472.125 969.875 474.621094 C 972.925781 477.117188 975.878906 479.71875 978.734375 482.433594 C 981.59375 485.144531 984.347656 487.957031 986.996094 490.875 C 989.648438 493.789062 992.1875 496.796875 994.613281 499.902344 C 997.042969 503.003906 999.355469 506.191406 1001.546875 509.464844 C 1003.742188 512.738281 1005.8125 516.085938 1007.757812 519.511719 C 1009.703125 522.9375 1011.523438 526.429688 1013.210938 529.988281 C 1014.902344 533.550781 1016.457031 537.167969 1017.878906 540.839844 C 1019.304688 544.515625 1020.589844 548.238281 1021.738281 552.003906 C 1022.886719 555.773438 1023.894531 559.582031 1024.761719 563.425781 C 1025.632812 567.265625 1026.359375 571.136719 1026.941406 575.035156 C 1027.523438 578.929688 1027.960938 582.84375 1028.257812 586.773438 C 1028.550781 590.703125 1028.703125 594.636719 1028.707031 598.578125 C 1028.703125 599.828125 1028.664062 601.082031 1028.597656 602.332031 C 1028.53125 603.582031 1028.4375 604.832031 1028.308594 606.078125 C 1028.179688 607.324219 1028.023438 608.566406 1027.835938 609.804688 C 1027.648438 611.042969 1027.429688 612.277344 1027.179688 613.503906 C 1026.933594 614.734375 1026.652344 615.953125 1026.347656 617.167969 C 1026.039062 618.382812 1025.699219 619.589844 1025.332031 620.785156 C 1024.964844 621.984375 1024.570312 623.171875 1024.144531 624.351562 C 1023.722656 625.527344 1023.269531 626.695312 1022.785156 627.851562 C 1022.304688 629.007812 1021.792969 630.152344 1021.257812 631.285156 C 1020.71875 632.414062 1020.15625 633.53125 1019.5625 634.636719 C 1018.96875 635.742188 1018.351562 636.828125 1017.707031 637.902344 C 1017.0625 638.976562 1016.390625 640.035156 1015.691406 641.074219 C 1014.996094 642.117188 1014.273438 643.136719 1013.527344 644.144531 C 1012.78125 645.148438 1012.007812 646.136719 1011.214844 647.105469 C 1010.417969 648.074219 1009.601562 649.019531 1008.757812 649.949219 C 1007.917969 650.875 1007.054688 651.78125 1006.167969 652.667969 C 1005.28125 653.554688 1004.375 654.417969 1003.449219 655.261719 C 1002.519531 656.101562 1001.574219 656.917969 1000.605469 657.714844 C 999.636719 658.511719 998.652344 659.28125 997.644531 660.027344 C 996.640625 660.773438 995.617188 661.496094 994.578125 662.195312 C 993.535156 662.890625 992.480469 663.5625 991.40625 664.207031 C 990.332031 664.855469 989.242188 665.472656 988.140625 666.066406 C 987.035156 666.65625 985.917969 667.222656 984.789062 667.761719 C 983.65625 668.296875 982.511719 668.808594 981.355469 669.289062 C 980.199219 669.769531 979.035156 670.226562 977.855469 670.648438 C 976.675781 671.074219 975.488281 671.46875 974.292969 671.835938 C 973.09375 672.203125 971.890625 672.542969 970.675781 672.851562 C 969.460938 673.15625 968.238281 673.4375 967.011719 673.683594 C 965.785156 673.933594 964.550781 674.152344 963.3125 674.339844 C 962.074219 674.527344 960.832031 674.683594 959.585938 674.8125 C 958.339844 674.941406 957.09375 675.039062 955.84375 675.105469 C 954.589844 675.171875 953.339844 675.207031 952.085938 675.210938 Z M 952.085938 675.210938" stroke-linecap="round" />
</g>
		<g transform="matrix(1.33 0 0 1.33 -173.48 -169.19)" clip-path="url(#CLIPPATH_9)"  >
<clipPath id="CLIPPATH_9" >
	<path transform="matrix(1 0 0 1 0.11 0.35) translate(-590, -278.45)" id="id2" d="M 443 131.902344 L 737 131.902344 L 737 425 L 443 425 Z M 443 131.902344" stroke-linecap="round" />
</clipPath>
<path style="stroke: none; stroke-width: 1; stroke-dasharray: none; stroke-linecap: butt; stroke-dashoffset: 0; stroke-linejoin: miter; stroke-miterlimit: 4; fill: rgb(255,255,255); fill-rule: nonzero; opacity: 1;"  transform=" translate(-589.89, -278.11)" d="M 589.886719 424.40625 C 587.492188 424.40625 585.097656 424.347656 582.707031 424.230469 C 580.316406 424.113281 577.929688 423.9375 575.546875 423.703125 C 573.164062 423.46875 570.789062 423.175781 568.421875 422.824219 C 566.054688 422.472656 563.695312 422.0625 561.347656 421.597656 C 559 421.128906 556.667969 420.605469 554.34375 420.023438 C 552.023438 419.441406 549.714844 418.804688 547.425781 418.109375 C 545.132812 417.414062 542.859375 416.664062 540.605469 415.855469 C 538.351562 415.050781 536.121094 414.1875 533.910156 413.269531 C 531.699219 412.355469 529.507812 411.386719 527.34375 410.359375 C 525.179688 409.335938 523.042969 408.261719 520.933594 407.132812 C 518.820312 406.003906 516.738281 404.824219 514.6875 403.59375 C 512.632812 402.363281 510.609375 401.082031 508.621094 399.75 C 506.628906 398.421875 504.671875 397.042969 502.75 395.617188 C 500.828125 394.191406 498.941406 392.71875 497.089844 391.199219 C 495.238281 389.679688 493.429688 388.117188 491.652344 386.507812 C 489.878906 384.902344 488.148438 383.25 486.453125 381.558594 C 484.761719 379.863281 483.113281 378.128906 481.503906 376.355469 C 479.894531 374.582031 478.332031 372.769531 476.8125 370.917969 C 475.296875 369.066406 473.824219 367.179688 472.398438 365.257812 C 470.972656 363.335938 469.59375 361.378906 468.261719 359.386719 C 466.933594 357.394531 465.652344 355.375 464.421875 353.320312 C 463.191406 351.265625 462.011719 349.183594 460.882812 347.070312 C 459.753906 344.960938 458.679688 342.824219 457.65625 340.65625 C 456.632812 338.492188 455.664062 336.304688 454.746094 334.09375 C 453.828125 331.882812 452.96875 329.648438 452.164062 327.394531 C 451.355469 325.140625 450.605469 322.867188 449.910156 320.574219 C 449.214844 318.285156 448.578125 315.976562 447.996094 313.652344 C 447.414062 311.332031 446.890625 308.996094 446.421875 306.648438 C 445.957031 304.300781 445.546875 301.941406 445.195312 299.574219 C 444.84375 297.203125 444.550781 294.828125 444.316406 292.445312 C 444.082031 290.0625 443.90625 287.675781 443.789062 285.285156 C 443.671875 282.894531 443.613281 280.5 443.613281 278.105469 C 443.613281 275.710938 443.671875 273.320312 443.789062 270.925781 C 443.90625 268.535156 444.082031 266.148438 444.316406 263.765625 C 444.550781 261.382812 444.84375 259.007812 445.195312 256.640625 C 445.546875 254.269531 445.957031 251.910156 446.421875 249.5625 C 446.890625 247.214844 447.414062 244.878906 447.996094 242.558594 C 448.578125 240.234375 449.214844 237.925781 449.910156 235.636719 C 450.605469 233.34375 451.355469 231.074219 452.164062 228.816406 C 452.96875 226.5625 453.828125 224.332031 454.746094 222.117188 C 455.664062 219.90625 456.632812 217.71875 457.65625 215.554688 C 458.679688 213.390625 459.753906 211.25 460.882812 209.140625 C 462.011719 207.027344 463.191406 204.945312 464.421875 202.890625 C 465.652344 200.835938 466.933594 198.816406 468.261719 196.824219 C 469.59375 194.832031 470.972656 192.875 472.398438 190.953125 C 473.824219 189.03125 475.296875 187.144531 476.8125 185.292969 C 478.332031 183.441406 479.894531 181.628906 481.503906 179.855469 C 483.113281 178.082031 484.761719 176.347656 486.453125 174.65625 C 488.148438 172.960938 489.878906 171.3125 491.652344 169.703125 C 493.429688 168.09375 495.238281 166.53125 497.089844 165.011719 C 498.941406 163.492188 500.828125 162.019531 502.75 160.59375 C 504.671875 159.167969 506.628906 157.789062 508.621094 156.460938 C 510.609375 155.128906 512.632812 153.847656 514.6875 152.617188 C 516.738281 151.386719 518.820312 150.207031 520.933594 149.078125 C 523.042969 147.949219 525.179688 146.875 527.34375 145.851562 C 529.507812 144.828125 531.699219 143.855469 533.910156 142.941406 C 536.121094 142.023438 538.351562 141.164062 540.605469 140.355469 C 542.859375 139.550781 545.132812 138.796875 547.425781 138.101562 C 549.714844 137.40625 552.023438 136.769531 554.34375 136.1875 C 556.667969 135.605469 559 135.082031 561.347656 134.613281 C 563.695312 134.148438 566.054688 133.738281 568.421875 133.386719 C 570.789062 133.035156 573.164062 132.742188 575.546875 132.507812 C 577.929688 132.273438 580.316406 132.097656 582.707031 131.980469 C 585.097656 131.863281 587.492188 131.804688 589.886719 131.804688 C 592.28125 131.804688 594.671875 131.863281 597.0625 131.980469 C 599.453125 132.097656 601.839844 132.273438 604.222656 132.507812 C 606.605469 132.742188 608.980469 133.035156 611.347656 133.386719 C 613.714844 133.738281 616.074219 134.148438 618.421875 134.613281 C 620.769531 135.082031 623.105469 135.605469 625.425781 136.1875 C 627.75 136.769531 630.054688 137.40625 632.347656 138.101562 C 634.636719 138.796875 636.910156 139.550781 639.164062 140.355469 C 641.417969 141.164062 643.652344 142.023438 645.863281 142.941406 C 648.074219 143.855469 650.261719 144.828125 652.425781 145.851562 C 654.589844 146.875 656.726562 147.949219 658.839844 149.078125 C 660.949219 150.207031 663.03125 151.386719 665.085938 152.617188 C 667.136719 153.847656 669.160156 155.128906 671.152344 156.460938 C 673.140625 157.789062 675.097656 159.167969 677.019531 160.59375 C 678.945312 162.019531 680.832031 163.492188 682.679688 165.011719 C 684.53125 166.53125 686.34375 168.09375 688.117188 169.703125 C 689.890625 171.3125 691.625 172.960938 693.316406 174.65625 C 695.007812 176.347656 696.660156 178.082031 698.265625 179.855469 C 699.875 181.628906 701.4375 183.441406 702.957031 185.292969 C 704.476562 187.144531 705.949219 189.03125 707.375 190.953125 C 708.800781 192.875 710.179688 194.832031 711.507812 196.824219 C 712.835938 198.816406 714.117188 200.835938 715.347656 202.890625 C 716.578125 204.945312 717.757812 207.027344 718.886719 209.140625 C 720.015625 211.25 721.09375 213.390625 722.117188 215.554688 C 723.140625 217.71875 724.109375 219.90625 725.023438 222.117188 C 725.941406 224.332031 726.800781 226.5625 727.609375 228.816406 C 728.414062 231.074219 729.167969 233.34375 729.859375 235.636719 C 730.554688 237.925781 731.195312 240.234375 731.777344 242.558594 C 732.359375 244.878906 732.882812 247.214844 733.347656 249.5625 C 733.816406 251.910156 734.226562 254.269531 734.578125 256.640625 C 734.925781 259.007812 735.21875 261.382812 735.457031 263.765625 C 735.691406 266.148438 735.867188 268.535156 735.984375 270.925781 C 736.101562 273.320312 736.160156 275.710938 736.160156 278.105469 C 736.15625 280.5 736.09375 282.890625 735.976562 285.28125 C 735.855469 287.671875 735.675781 290.058594 735.441406 292.441406 C 735.203125 294.824219 734.90625 297.195312 734.554688 299.5625 C 734.203125 301.933594 733.789062 304.289062 733.320312 306.636719 C 732.851562 308.984375 732.328125 311.316406 731.742188 313.640625 C 731.160156 315.960938 730.519531 318.265625 729.824219 320.554688 C 729.128906 322.847656 728.375 325.117188 727.566406 327.371094 C 726.761719 329.625 725.898438 331.855469 724.980469 334.066406 C 724.0625 336.277344 723.09375 338.464844 722.070312 340.628906 C 721.042969 342.792969 719.96875 344.929688 718.839844 347.039062 C 717.710938 349.148438 716.53125 351.230469 715.296875 353.285156 C 714.066406 355.335938 712.785156 357.359375 711.457031 359.347656 C 710.125 361.335938 708.75 363.292969 707.324219 365.214844 C 705.894531 367.136719 704.425781 369.023438 702.90625 370.875 C 701.386719 372.722656 699.824219 374.535156 698.21875 376.308594 C 696.609375 378.082031 694.960938 379.816406 693.269531 381.507812 C 691.574219 383.199219 689.84375 384.851562 688.070312 386.457031 C 686.296875 388.066406 684.484375 389.628906 682.636719 391.148438 C 680.785156 392.667969 678.902344 394.140625 676.976562 395.566406 C 675.054688 396.992188 673.101562 398.371094 671.113281 399.699219 C 669.121094 401.03125 667.101562 402.3125 665.050781 403.542969 C 662.996094 404.773438 660.914062 405.953125 658.804688 407.082031 C 656.695312 408.210938 654.558594 409.289062 652.394531 410.3125 C 650.234375 411.339844 648.046875 412.308594 645.835938 413.226562 C 643.625 414.144531 641.394531 415.007812 639.140625 415.8125 C 636.890625 416.621094 634.617188 417.375 632.328125 418.070312 C 630.039062 418.765625 627.734375 419.40625 625.414062 419.992188 C 623.089844 420.574219 620.757812 421.101562 618.410156 421.570312 C 616.0625 422.039062 613.707031 422.449219 611.339844 422.804688 C 608.972656 423.15625 606.597656 423.453125 604.21875 423.6875 C 601.835938 423.925781 599.449219 424.105469 597.058594 424.222656 C 594.671875 424.34375 592.277344 424.40625 589.886719 424.40625 Z M 589.886719 173.605469 C 588.175781 173.605469 586.464844 173.644531 584.757812 173.730469 C 583.050781 173.8125 581.347656 173.941406 579.644531 174.105469 C 577.941406 174.273438 576.246094 174.484375 574.554688 174.734375 C 572.863281 174.984375 571.179688 175.277344 569.503906 175.613281 C 567.824219 175.945312 566.15625 176.320312 564.5 176.734375 C 562.839844 177.152344 561.191406 177.609375 559.554688 178.105469 C 557.921875 178.601562 556.296875 179.136719 554.6875 179.710938 C 553.078125 180.289062 551.480469 180.90625 549.902344 181.558594 C 548.324219 182.214844 546.761719 182.90625 545.214844 183.636719 C 543.667969 184.367188 542.140625 185.136719 540.632812 185.945312 C 539.125 186.75 537.636719 187.59375 536.171875 188.472656 C 534.703125 189.351562 533.261719 190.265625 531.839844 191.214844 C 530.417969 192.164062 529.019531 193.152344 527.644531 194.167969 C 526.273438 195.1875 524.925781 196.238281 523.601562 197.324219 C 522.28125 198.410156 520.988281 199.527344 519.71875 200.675781 C 518.453125 201.824219 517.214844 203.003906 516.007812 204.210938 C 514.796875 205.421875 513.617188 206.660156 512.46875 207.925781 C 511.320312 209.195312 510.207031 210.488281 509.121094 211.8125 C 508.035156 213.132812 506.984375 214.480469 505.964844 215.855469 C 504.945312 217.226562 503.960938 218.625 503.011719 220.046875 C 502.0625 221.46875 501.148438 222.914062 500.269531 224.382812 C 499.390625 225.847656 498.546875 227.335938 497.742188 228.84375 C 496.933594 230.351562 496.167969 231.878906 495.433594 233.425781 C 494.703125 234.972656 494.011719 236.535156 493.355469 238.113281 C 492.703125 239.695312 492.085938 241.289062 491.511719 242.898438 C 490.9375 244.511719 490.398438 246.132812 489.902344 247.769531 C 489.40625 249.40625 488.949219 251.054688 488.535156 252.714844 C 488.121094 254.371094 487.746094 256.042969 487.410156 257.71875 C 487.078125 259.394531 486.785156 261.082031 486.535156 262.773438 C 486.285156 264.464844 486.074219 266.160156 485.90625 267.863281 C 485.738281 269.566406 485.613281 271.269531 485.53125 272.976562 C 485.445312 274.6875 485.402344 276.394531 485.402344 278.105469 C 485.402344 279.816406 485.445312 281.523438 485.53125 283.234375 C 485.613281 284.941406 485.738281 286.648438 485.90625 288.347656 C 486.074219 290.050781 486.285156 291.746094 486.535156 293.4375 C 486.785156 295.132812 487.078125 296.816406 487.410156 298.492188 C 487.746094 300.171875 488.121094 301.839844 488.535156 303.496094 C 488.949219 305.15625 489.40625 306.804688 489.902344 308.441406 C 490.398438 310.078125 490.9375 311.699219 491.511719 313.3125 C 492.085938 314.921875 492.703125 316.515625 493.355469 318.097656 C 494.011719 319.675781 494.703125 321.238281 495.433594 322.785156 C 496.167969 324.332031 496.933594 325.859375 497.742188 327.367188 C 498.546875 328.875 499.390625 330.363281 500.269531 331.832031 C 501.148438 333.296875 502.0625 334.742188 503.011719 336.164062 C 503.960938 337.585938 504.945312 338.984375 505.964844 340.355469 C 506.984375 341.730469 508.035156 343.078125 509.121094 344.402344 C 510.207031 345.722656 511.320312 347.015625 512.46875 348.285156 C 513.617188 349.550781 514.796875 350.789062 516.007812 352 C 517.214844 353.207031 518.453125 354.386719 519.71875 355.535156 C 520.988281 356.683594 522.28125 357.800781 523.601562 358.886719 C 524.925781 359.972656 526.273438 361.023438 527.644531 362.042969 C 529.019531 363.0625 530.417969 364.046875 531.839844 364.996094 C 533.261719 365.945312 534.703125 366.859375 536.171875 367.738281 C 537.636719 368.617188 539.125 369.460938 540.632812 370.269531 C 542.140625 371.074219 543.667969 371.84375 545.214844 372.574219 C 546.761719 373.304688 548.324219 374 549.902344 374.652344 C 551.480469 375.308594 553.078125 375.921875 554.6875 376.5 C 556.296875 377.074219 557.921875 377.609375 559.554688 378.109375 C 561.191406 378.605469 562.839844 379.058594 564.5 379.476562 C 566.15625 379.890625 567.824219 380.265625 569.503906 380.597656 C 571.179688 380.933594 572.863281 381.226562 574.554688 381.476562 C 576.246094 381.726562 577.941406 381.9375 579.644531 382.105469 C 581.347656 382.273438 583.050781 382.398438 584.757812 382.480469 C 586.464844 382.566406 588.175781 382.605469 589.886719 382.605469 C 591.59375 382.605469 593.304688 382.566406 595.011719 382.480469 C 596.71875 382.398438 598.425781 382.273438 600.125 382.105469 C 601.828125 381.9375 603.523438 381.726562 605.214844 381.476562 C 606.90625 381.226562 608.59375 380.933594 610.269531 380.597656 C 611.945312 380.265625 613.613281 379.890625 615.273438 379.476562 C 616.929688 379.058594 618.578125 378.605469 620.214844 378.109375 C 621.851562 377.609375 623.472656 377.074219 625.085938 376.5 C 626.695312 375.921875 628.289062 375.308594 629.867188 374.652344 C 631.449219 374 633.011719 373.304688 634.558594 372.574219 C 636.101562 371.84375 637.628906 371.074219 639.136719 370.269531 C 640.644531 369.460938 642.132812 368.617188 643.601562 367.738281 C 645.066406 366.859375 646.511719 365.945312 647.933594 364.996094 C 649.355469 364.046875 650.75 363.0625 652.125 362.042969 C 653.5 361.023438 654.847656 359.972656 656.167969 358.886719 C 657.488281 357.800781 658.785156 356.683594 660.050781 355.535156 C 661.316406 354.386719 662.554688 353.207031 663.765625 352 C 664.972656 350.789062 666.152344 349.550781 667.300781 348.285156 C 668.449219 347.015625 669.566406 345.722656 670.652344 344.402344 C 671.734375 343.078125 672.789062 341.730469 673.804688 340.355469 C 674.824219 338.984375 675.808594 337.585938 676.757812 336.164062 C 677.707031 334.742188 678.625 333.296875 679.503906 331.832031 C 680.382812 330.363281 681.222656 328.875 682.03125 327.367188 C 682.835938 325.859375 683.605469 324.332031 684.335938 322.785156 C 685.066406 321.238281 685.757812 319.675781 686.414062 318.097656 C 687.066406 316.515625 687.683594 314.921875 688.257812 313.3125 C 688.835938 311.699219 689.371094 310.078125 689.867188 308.441406 C 690.363281 306.804688 690.820312 305.15625 691.234375 303.496094 C 691.652344 301.839844 692.027344 300.171875 692.359375 298.492188 C 692.691406 296.816406 692.984375 295.132812 693.234375 293.4375 C 693.488281 291.746094 693.695312 290.050781 693.863281 288.347656 C 694.03125 286.648438 694.15625 284.941406 694.242188 283.234375 C 694.324219 281.523438 694.367188 279.816406 694.367188 278.105469 C 694.363281 276.394531 694.320312 274.6875 694.234375 272.980469 C 694.148438 271.273438 694.019531 269.566406 693.851562 267.867188 C 693.683594 266.164062 693.46875 264.46875 693.21875 262.777344 C 692.964844 261.089844 692.671875 259.40625 692.335938 257.726562 C 692 256.050781 691.625 254.382812 691.207031 252.726562 C 690.792969 251.070312 690.335938 249.421875 689.835938 247.785156 C 689.339844 246.148438 688.800781 244.527344 688.226562 242.917969 C 687.648438 241.308594 687.03125 239.714844 686.375 238.136719 C 685.722656 236.558594 685.027344 234.996094 684.296875 233.449219 C 683.566406 231.90625 682.796875 230.378906 681.988281 228.871094 C 681.183594 227.363281 680.339844 225.878906 679.460938 224.410156 C 678.582031 222.945312 677.664062 221.5 676.714844 220.082031 C 675.765625 218.660156 674.78125 217.261719 673.761719 215.890625 C 672.746094 214.515625 671.691406 213.167969 670.609375 211.847656 C 669.523438 210.527344 668.40625 209.234375 667.257812 207.964844 C 666.109375 206.699219 664.933594 205.460938 663.722656 204.253906 C 662.515625 203.042969 661.277344 201.863281 660.011719 200.71875 C 658.746094 199.570312 657.453125 198.453125 656.128906 197.367188 C 654.808594 196.28125 653.460938 195.230469 652.089844 194.210938 C 650.71875 193.191406 649.320312 192.207031 647.898438 191.257812 C 646.476562 190.308594 645.035156 189.394531 643.570312 188.515625 C 642.105469 187.632812 640.617188 186.792969 639.109375 185.984375 C 637.601562 185.179688 636.078125 184.410156 634.53125 183.675781 C 632.988281 182.945312 631.425781 182.25 629.847656 181.597656 C 628.269531 180.941406 626.675781 180.324219 625.066406 179.746094 C 623.457031 179.171875 621.835938 178.632812 620.199219 178.136719 C 618.5625 177.636719 616.917969 177.179688 615.261719 176.761719 C 613.601562 176.347656 611.933594 175.96875 610.257812 175.636719 C 608.582031 175.300781 606.898438 175.007812 605.210938 174.753906 C 603.519531 174.5 601.824219 174.289062 600.121094 174.121094 C 598.421875 173.949219 596.71875 173.824219 595.011719 173.738281 C 593.304688 173.652344 591.59375 173.605469 589.886719 173.605469 Z M 589.886719 173.605469" stroke-linecap="round" />
</g>
		<g transform="matrix(1.33 0 0 1.33 198 -39.15)"  >
<path style="stroke: none; stroke-width: 1; stroke-dasharray: none; stroke-linecap: butt; stroke-dashoffset: 0; stroke-linejoin: miter; stroke-miterlimit: 4; fill: rgb(255,255,255); fill-rule: nonzero; opacity: 1;"  transform=" translate(-868.5, -375.64)" d="M 868.503906 480.140625 C 866.792969 480.140625 865.082031 480.101562 863.375 480.015625 C 861.667969 479.933594 859.964844 479.804688 858.261719 479.640625 C 856.558594 479.472656 854.863281 479.261719 853.171875 479.011719 C 851.480469 478.761719 849.796875 478.46875 848.121094 478.132812 C 846.441406 477.800781 844.773438 477.425781 843.117188 477.011719 C 841.457031 476.59375 839.808594 476.140625 838.171875 475.640625 C 836.535156 475.144531 834.914062 474.609375 833.304688 474.035156 C 831.695312 473.457031 830.097656 472.84375 828.519531 472.1875 C 826.941406 471.53125 825.375 470.839844 823.832031 470.109375 C 822.285156 469.378906 820.757812 468.609375 819.25 467.800781 C 817.742188 466.996094 816.253906 466.152344 814.789062 465.273438 C 813.320312 464.394531 811.878906 463.480469 810.457031 462.53125 C 809.035156 461.582031 807.636719 460.597656 806.261719 459.578125 C 804.890625 458.558594 803.542969 457.507812 802.21875 456.421875 C 800.898438 455.335938 799.605469 454.21875 798.335938 453.070312 C 797.070312 451.921875 795.832031 450.742188 794.621094 449.535156 C 793.414062 448.324219 792.234375 447.085938 791.085938 445.820312 C 789.9375 444.550781 788.820312 443.257812 787.738281 441.9375 C 786.652344 440.613281 785.601562 439.265625 784.582031 437.890625 C 783.5625 436.519531 782.578125 435.121094 781.628906 433.699219 C 780.679688 432.277344 779.765625 430.832031 778.886719 429.363281 C 778.007812 427.898438 777.164062 426.410156 776.359375 424.902344 C 775.550781 423.394531 774.785156 421.867188 774.050781 420.320312 C 773.320312 418.773438 772.628906 417.210938 771.972656 415.632812 C 771.320312 414.050781 770.703125 412.457031 770.128906 410.847656 C 769.550781 409.234375 769.015625 407.613281 768.519531 405.976562 C 768.023438 404.339844 767.566406 402.691406 767.152344 401.03125 C 766.738281 399.375 766.363281 397.703125 766.027344 396.027344 C 765.695312 394.351562 765.402344 392.664062 765.152344 390.972656 C 764.902344 389.28125 764.691406 387.585938 764.523438 385.882812 C 764.355469 384.179688 764.230469 382.476562 764.148438 380.769531 C 764.0625 379.058594 764.019531 377.351562 764.019531 375.640625 C 764.019531 373.929688 764.0625 372.222656 764.148438 370.511719 C 764.230469 368.804688 764.355469 367.097656 764.523438 365.398438 C 764.691406 363.695312 764.902344 362 765.152344 360.308594 C 765.402344 358.613281 765.695312 356.929688 766.027344 355.253906 C 766.363281 353.574219 766.738281 351.90625 767.152344 350.25 C 767.566406 348.589844 768.023438 346.941406 768.519531 345.304688 C 769.015625 343.667969 769.550781 342.046875 770.128906 340.433594 C 770.703125 338.824219 771.320312 337.230469 771.972656 335.648438 C 772.628906 334.070312 773.320312 332.507812 774.050781 330.960938 C 774.785156 329.414062 775.550781 327.886719 776.359375 326.378906 C 777.164062 324.871094 778.007812 323.382812 778.886719 321.914062 C 779.765625 320.449219 780.679688 319.003906 781.628906 317.582031 C 782.578125 316.160156 783.5625 314.761719 784.582031 313.390625 C 785.601562 312.015625 786.652344 310.667969 787.738281 309.34375 C 788.820312 308.023438 789.9375 306.730469 791.085938 305.460938 C 792.234375 304.195312 793.414062 302.957031 794.625 301.746094 C 795.832031 300.539062 797.070312 299.359375 798.335938 298.210938 C 799.605469 297.0625 800.898438 295.945312 802.21875 294.859375 C 803.542969 293.773438 804.890625 292.722656 806.261719 291.703125 C 807.636719 290.683594 809.035156 289.699219 810.457031 288.75 C 811.878906 287.800781 813.320312 286.886719 814.789062 286.007812 C 816.253906 285.128906 817.742188 284.285156 819.25 283.476562 C 820.757812 282.671875 822.285156 281.902344 823.832031 281.171875 C 825.375 280.441406 826.941406 279.75 828.519531 279.09375 C 830.097656 278.4375 831.695312 277.824219 833.304688 277.246094 C 834.914062 276.671875 836.535156 276.136719 838.171875 275.640625 C 839.808594 275.140625 841.457031 274.6875 843.117188 274.269531 C 844.773438 273.855469 846.441406 273.480469 848.121094 273.148438 C 849.796875 272.8125 851.480469 272.519531 853.171875 272.269531 C 854.863281 272.019531 856.558594 271.808594 858.261719 271.640625 C 859.964844 271.472656 861.667969 271.347656 863.375 271.265625 C 865.082031 271.179688 866.792969 271.140625 868.503906 271.140625 C 870.210938 271.140625 871.921875 271.179688 873.628906 271.265625 C 875.335938 271.347656 877.042969 271.472656 878.742188 271.640625 C 880.445312 271.808594 882.140625 272.019531 883.832031 272.269531 C 885.523438 272.519531 887.207031 272.8125 888.886719 273.148438 C 890.5625 273.480469 892.230469 273.855469 893.890625 274.269531 C 895.546875 274.6875 897.195312 275.140625 898.832031 275.640625 C 900.46875 276.136719 902.089844 276.671875 903.703125 277.246094 C 905.3125 277.824219 906.90625 278.4375 908.484375 279.09375 C 910.066406 279.75 911.628906 280.441406 913.175781 281.171875 C 914.71875 281.902344 916.246094 282.671875 917.753906 283.476562 C 919.261719 284.285156 920.75 285.128906 922.214844 286.007812 C 923.683594 286.886719 925.128906 287.800781 926.550781 288.75 C 927.972656 289.699219 929.367188 290.683594 930.742188 291.703125 C 932.117188 292.722656 933.464844 293.773438 934.785156 294.859375 C 936.105469 295.945312 937.402344 297.0625 938.667969 298.210938 C 939.933594 299.359375 941.171875 300.539062 942.382812 301.746094 C 943.589844 302.957031 944.769531 304.195312 945.917969 305.460938 C 947.066406 306.730469 948.183594 308.023438 949.269531 309.34375 C 950.351562 310.667969 951.402344 312.015625 952.421875 313.390625 C 953.441406 314.761719 954.425781 316.160156 955.375 317.582031 C 956.324219 319.003906 957.238281 320.449219 958.117188 321.914062 C 959 323.382812 959.839844 324.871094 960.648438 326.378906 C 961.453125 327.886719 962.222656 329.414062 962.953125 330.960938 C 963.683594 332.507812 964.375 334.070312 965.03125 335.648438 C 965.683594 337.230469 966.300781 338.824219 966.875 340.433594 C 967.453125 342.046875 967.988281 343.667969 968.484375 345.304688 C 968.980469 346.941406 969.4375 348.589844 969.851562 350.25 C 970.269531 351.90625 970.644531 353.574219 970.976562 355.253906 C 971.308594 356.929688 971.601562 358.613281 971.851562 360.308594 C 972.105469 362 972.3125 363.695312 972.480469 365.398438 C 972.648438 367.097656 972.773438 368.804688 972.859375 370.511719 C 972.941406 372.222656 972.984375 373.929688 972.984375 375.640625 C 972.980469 377.351562 972.9375 379.058594 972.851562 380.765625 C 972.765625 382.472656 972.636719 384.179688 972.46875 385.878906 C 972.296875 387.582031 972.085938 389.277344 971.835938 390.96875 C 971.582031 392.65625 971.289062 394.339844 970.953125 396.019531 C 970.617188 397.695312 970.242188 399.363281 969.824219 401.019531 C 969.410156 402.675781 968.953125 404.324219 968.453125 405.960938 C 967.957031 407.597656 967.417969 409.21875 966.84375 410.828125 C 966.265625 412.4375 965.648438 414.03125 964.992188 415.609375 C 964.339844 417.1875 963.644531 418.75 962.914062 420.296875 C 962.179688 421.839844 961.414062 423.367188 960.605469 424.875 C 959.800781 426.382812 958.957031 427.867188 958.078125 429.335938 C 957.199219 430.800781 956.28125 432.246094 955.332031 433.664062 C 954.382812 435.085938 953.398438 436.484375 952.378906 437.855469 C 951.359375 439.230469 950.308594 440.578125 949.226562 441.898438 C 948.140625 443.21875 947.023438 444.511719 945.875 445.78125 C 944.726562 447.046875 943.550781 448.285156 942.339844 449.492188 C 941.132812 450.703125 939.894531 451.882812 938.628906 453.027344 C 937.363281 454.175781 936.070312 455.292969 934.746094 456.378906 C 933.425781 457.464844 932.078125 458.515625 930.707031 459.535156 C 929.335938 460.554688 927.9375 461.539062 926.515625 462.488281 C 925.09375 463.4375 923.652344 464.351562 922.1875 465.230469 C 920.71875 466.113281 919.234375 466.953125 917.726562 467.761719 C 916.21875 468.566406 914.695312 469.335938 913.148438 470.070312 C 911.605469 470.800781 910.042969 471.496094 908.464844 472.148438 C 906.886719 472.804688 905.292969 473.421875 903.683594 474 C 902.074219 474.574219 900.453125 475.113281 898.816406 475.609375 C 897.179688 476.109375 895.535156 476.566406 893.875 476.984375 C 892.21875 477.398438 890.550781 477.777344 888.875 478.109375 C 887.199219 478.445312 885.515625 478.738281 883.824219 478.992188 C 882.136719 479.246094 880.441406 479.457031 878.738281 479.625 C 877.039062 479.796875 875.335938 479.921875 873.628906 480.007812 C 871.921875 480.09375 870.210938 480.140625 868.503906 480.140625 Z M 868.503906 312.941406 C 866.449219 312.941406 864.402344 313.039062 862.359375 313.242188 C 860.316406 313.441406 858.285156 313.742188 856.273438 314.144531 C 854.257812 314.546875 852.269531 315.042969 850.304688 315.640625 C 848.339844 316.234375 846.410156 316.925781 844.511719 317.710938 C 842.617188 318.5 840.761719 319.375 838.953125 320.34375 C 837.140625 321.3125 835.382812 322.367188 833.675781 323.507812 C 831.96875 324.648438 830.320312 325.871094 828.734375 327.171875 C 827.144531 328.476562 825.625 329.851562 824.175781 331.304688 C 822.722656 332.757812 821.347656 334.277344 820.042969 335.863281 C 818.742188 337.449219 817.519531 339.097656 816.378906 340.804688 C 815.238281 342.511719 814.183594 344.273438 813.214844 346.082031 C 812.25 347.894531 811.371094 349.75 810.585938 351.644531 C 809.800781 353.542969 809.109375 355.472656 808.511719 357.4375 C 807.917969 359.40625 807.417969 361.394531 807.019531 363.40625 C 806.617188 365.421875 806.316406 367.449219 806.117188 369.496094 C 805.914062 371.539062 805.8125 373.585938 805.8125 375.640625 C 805.8125 377.695312 805.914062 379.742188 806.117188 381.785156 C 806.316406 383.828125 806.617188 385.859375 807.019531 387.871094 C 807.417969 389.886719 807.917969 391.875 808.511719 393.839844 C 809.109375 395.808594 809.800781 397.738281 810.585938 399.636719 C 811.371094 401.53125 812.25 403.386719 813.214844 405.199219 C 814.183594 407.007812 815.238281 408.769531 816.378906 410.476562 C 817.519531 412.183594 818.742188 413.832031 820.042969 415.417969 C 821.347656 417.003906 822.722656 418.523438 824.175781 419.976562 C 825.625 421.429688 827.144531 422.804688 828.734375 424.109375 C 830.320312 425.410156 831.96875 426.632812 833.675781 427.773438 C 835.382812 428.914062 837.140625 429.96875 838.953125 430.9375 C 840.761719 431.90625 842.617188 432.78125 844.511719 433.570312 C 846.410156 434.355469 848.339844 435.046875 850.304688 435.640625 C 852.269531 436.238281 854.257812 436.734375 856.273438 437.136719 C 858.285156 437.539062 860.316406 437.839844 862.359375 438.039062 C 864.402344 438.242188 866.449219 438.339844 868.503906 438.339844 C 870.554688 438.339844 872.605469 438.242188 874.648438 438.039062 C 876.691406 437.839844 878.71875 437.539062 880.734375 437.136719 C 882.746094 436.734375 884.734375 436.238281 886.699219 435.640625 C 888.664062 435.046875 890.59375 434.355469 892.492188 433.570312 C 894.390625 432.78125 896.242188 431.90625 898.054688 430.9375 C 899.863281 429.96875 901.625 428.914062 903.332031 427.773438 C 905.039062 426.632812 906.683594 425.410156 908.273438 424.109375 C 909.859375 422.804688 911.378906 421.429688 912.832031 419.976562 C 914.28125 418.523438 915.660156 417.003906 916.960938 415.417969 C 918.265625 413.832031 919.484375 412.183594 920.625 410.476562 C 921.765625 408.769531 922.820312 407.007812 923.789062 405.199219 C 924.757812 403.386719 925.632812 401.53125 926.417969 399.636719 C 927.207031 397.738281 927.894531 395.808594 928.492188 393.839844 C 929.089844 391.875 929.585938 389.886719 929.988281 387.871094 C 930.386719 385.859375 930.6875 383.828125 930.890625 381.785156 C 931.089844 379.742188 931.191406 377.695312 931.191406 375.640625 C 931.1875 373.585938 931.085938 371.539062 930.882812 369.496094 C 930.679688 367.453125 930.375 365.425781 929.972656 363.414062 C 929.570312 361.402344 929.070312 359.414062 928.472656 357.449219 C 927.875 355.484375 927.183594 353.554688 926.398438 351.660156 C 925.609375 349.761719 924.734375 347.910156 923.765625 346.101562 C 922.796875 344.289062 921.742188 342.53125 920.601562 340.824219 C 919.460938 339.117188 918.238281 337.472656 916.9375 335.886719 C 915.632812 334.300781 914.257812 332.78125 912.804688 331.328125 C 911.355469 329.878906 909.835938 328.5 908.25 327.199219 C 906.664062 325.894531 905.015625 324.671875 903.3125 323.53125 C 901.605469 322.390625 899.847656 321.335938 898.039062 320.367188 C 896.226562 319.398438 894.375 318.523438 892.480469 317.734375 C 890.582031 316.949219 888.65625 316.253906 886.691406 315.65625 C 884.726562 315.0625 882.738281 314.5625 880.726562 314.15625 C 878.714844 313.753906 876.6875 313.453125 874.644531 313.25 C 872.601562 313.046875 870.554688 312.941406 868.503906 312.941406 Z M 868.503906 312.941406" stroke-linecap="round" />
</g>
</g>
</g>
</svg>