<svg xmlns="http://www.w3.org/2000/svg" xmlns:xlink="http://www.w3.org/1999/xlink" width="1080" zoomAndPan="magnify" viewBox="0 0 810 809.999993" height="1080" preserveAspectRatio="xMidYMid meet" version="1.0">
    <defs>
        <clipPath id="id1">
            <path d="M 133.632812 133.632812 L 620 133.632812 L 620 449 L 133.632812 449 Z M 133.632812 133.632812 " clip-rule="nonzero" />
        </clipPath>
        <clipPath id="id2">
            <path d="M 190 362 L 676.632812 362 L 676.632812 676.632812 L 190 676.632812 Z M 190 362 " clip-rule="nonzero" />
        </clipPath>
    </defs>
    <g clip-path="url(#id1)">
        <path fill="rgb(0%, 70.199585%, 81.959534%)" d="M 216.910156 405.433594 C 216.910156 380.011719 221.882812 355.386719 231.675781 332.257812 C 241.136719 309.886719 254.722656 289.769531 272.042969 272.46875 C 289.359375 255.171875 309.492188 241.582031 331.894531 232.136719 C 355.058594 222.328125 379.699219 217.390625 405.136719 217.390625 C 430.585938 217.390625 455.226562 222.328125 478.390625 232.136719 C 488.21875 236.28125 497.628906 241.25 506.542969 246.953125 L 453.453125 299.976562 L 619.949219 299.976562 L 619.949219 133.644531 L 566.363281 187.199219 C 521.273438 153.894531 465.515625 134.207031 405.132812 134.207031 C 255.207031 134.207031 133.648438 255.636719 133.648438 405.433594 C 133.648438 420.179688 134.839844 434.695312 137.109375 448.816406 L 221.933594 448.816406 C 218.601562 434.695312 216.910156 420.214844 216.910156 405.433594 Z M 216.910156 405.433594 " fill-opacity="1" fill-rule="nonzero" />
    </g>
    <g clip-path="url(#id2)">
        <path fill="rgb(0%, 70.199585%, 81.959534%)" d="M 673.171875 362.019531 L 588.351562 362.019531 C 591.683594 376.136719 593.371094 390.652344 593.371094 405.433594 C 593.371094 430.851562 588.398438 455.476562 578.605469 478.574219 C 569.128906 500.980469 555.558594 521.09375 538.242188 538.394531 C 520.925781 555.695312 500.789062 569.25 478.386719 578.722656 C 455.222656 588.503906 430.585938 593.472656 405.132812 593.472656 C 379.695312 593.472656 355.054688 588.5 331.890625 578.722656 C 321.929688 574.515625 312.421875 569.480469 303.386719 563.679688 L 356.828125 510.289062 L 190.316406 510.289062 L 190.316406 676.621094 L 243.605469 623.394531 C 288.746094 656.835938 344.621094 676.621094 405.132812 676.621094 C 555.078125 676.621094 676.621094 555.195312 676.621094 405.429688 C 676.621094 390.652344 675.441406 376.167969 673.171875 362.019531 Z M 673.171875 362.019531 " fill-opacity="1" fill-rule="nonzero" />
    </g>
</svg>