<svg xmlns="http://www.w3.org/2000/svg" xmlns:xlink="http://www.w3.org/1999/xlink" version="1.1" width="99" height="98" viewBox="0 0 99 98" xml:space="preserve">
<desc>Created with Fabric.js 3.6.3</desc>
<defs>
</defs>
<g transform="matrix(1 0 0 1 50 52)"  >
<g style=""   >
		<g transform="matrix(0.19 0 0 0.19 -32.91 29.93)" clip-path="url(#CLIPPATH_5)"  >
<clipPath id="CLIPPATH_5" >
	<path transform="matrix(1 0 0 1 0.14 -0.13) translate(-544.6, -564.5)" id="id1" d="M 457.199219 480 L 632 480 L 632 649 L 457.199219 649 Z M 457.199219 480" stroke-linecap="round" />
</clipPath>
<path style="stroke: none; stroke-width: 1; stroke-dasharray: none; stroke-linecap: butt; stroke-dashoffset: 0; stroke-linejoin: miter; stroke-miterlimit: 4; fill: rgb(255,255,255); fill-rule: nonzero; opacity: 1;"  transform=" translate(-544.46, -564.63)" d="M 463.746094 632.261719 C 488.832031 643.171875 517.191406 648.625 544.460938 648.625 C 571.730469 648.625 599 643.171875 625.179688 632.261719 C 629.542969 630.082031 631.722656 626.808594 631.722656 622.445312 C 631.722656 591.90625 613.179688 563.542969 584.820312 552.636719 L 579.367188 550.457031 C 584.820312 542.820312 588.09375 534.09375 588.09375 524.277344 C 588.09375 500.28125 568.460938 480.644531 544.460938 480.644531 C 520.464844 480.644531 500.832031 500.28125 500.832031 524.277344 C 500.832031 534.09375 504.105469 542.820312 509.558594 550.457031 L 504.105469 552.636719 C 475.742188 563.542969 457.199219 591.90625 457.199219 622.445312 C 457.199219 626.808594 459.382812 631.171875 463.746094 632.261719 Z M 544.460938 502.460938 C 556.460938 502.460938 566.277344 512.277344 566.277344 524.277344 C 566.277344 536.273438 556.460938 546.09375 544.460938 546.09375 C 532.464844 546.09375 522.648438 536.273438 522.648438 524.277344 C 522.648438 512.277344 532.464844 502.460938 544.460938 502.460938 Z M 512.832031 572.269531 L 524.828125 567.90625 L 564.097656 567.90625 L 576.09375 572.269531 C 594.636719 579.90625 606.636719 596.269531 608.816406 614.8125 C 567.367188 631.171875 520.464844 631.171875 479.015625 614.8125 C 482.289062 596.265625 494.289062 579.90625 512.832031 572.269531 Z M 512.832031 572.269531" stroke-linecap="round" />
</g>
		<g transform="matrix(0.19 0 0 0.19 32.53 -19.15)"  >
<path style="stroke: none; stroke-width: 1; stroke-dasharray: none; stroke-linecap: butt; stroke-dashoffset: 0; stroke-linejoin: miter; stroke-miterlimit: 4; fill: rgb(255,255,255); fill-rule: nonzero; opacity: 1;"  transform=" translate(-893.51, -302.85)" d="M 849.878906 262.492188 C 849.878906 272.308594 853.148438 281.035156 858.601562 288.671875 L 853.148438 290.851562 C 824.789062 301.761719 806.246094 330.121094 806.246094 360.660156 C 806.246094 365.023438 808.429688 369.386719 812.792969 370.480469 C 837.878906 381.386719 866.238281 386.839844 893.507812 386.839844 C 920.777344 386.839844 948.046875 381.386719 974.226562 370.480469 C 978.589844 368.296875 980.769531 365.023438 980.769531 360.660156 C 980.769531 330.121094 962.226562 301.761719 933.867188 290.851562 L 928.414062 288.671875 C 933.867188 281.035156 937.140625 272.308594 937.140625 262.492188 C 937.140625 238.496094 917.503906 218.863281 893.507812 218.863281 C 869.511719 218.863281 849.878906 238.496094 849.878906 262.492188 Z M 958.953125 353.027344 C 917.503906 369.386719 870.601562 369.386719 829.152344 353.027344 C 831.335938 334.484375 844.421875 318.121094 861.875 310.488281 L 873.875 306.125 L 913.140625 306.125 L 925.140625 310.488281 C 943.683594 318.121094 955.683594 334.484375 958.953125 353.027344 Z M 893.507812 240.675781 C 905.507812 240.675781 915.324219 250.496094 915.324219 262.492188 C 915.324219 274.492188 905.507812 284.308594 893.507812 284.308594 C 881.507812 284.308594 871.691406 274.492188 871.691406 262.492188 C 871.691406 250.496094 881.507812 240.675781 893.507812 240.675781 Z M 893.507812 240.675781" stroke-linecap="round" />
</g>
		<g transform="matrix(0.19 0 0 0.19 -16.35 -32.86)" clip-path="url(#CLIPPATH_6)"  >
<clipPath id="CLIPPATH_6" >
	<path transform="matrix(1 0 0 1 0.29 -0.27) translate(-633.1, -229.5)" id="id2" d="M 457.199219 131 L 809 131 L 809 328 L 457.199219 328 Z M 457.199219 131" stroke-linecap="round" />
</clipPath>
<path style="stroke: none; stroke-width: 1; stroke-dasharray: none; stroke-linecap: butt; stroke-dashoffset: 0; stroke-linejoin: miter; stroke-miterlimit: 4; fill: rgb(255,255,255); fill-rule: nonzero; opacity: 1;"  transform=" translate(-632.81, -229.77)" d="M 487.742188 262.492188 L 660.082031 262.492188 L 711.351562 323.574219 C 713.53125 325.757812 716.804688 327.9375 720.074219 327.9375 C 721.167969 327.9375 722.257812 327.9375 723.347656 327.9375 C 727.710938 326.847656 730.984375 323.574219 730.984375 319.210938 L 740.800781 262.492188 L 777.886719 262.492188 C 794.25 262.492188 808.429688 249.402344 808.429688 231.953125 L 808.429688 162.140625 C 806.246094 144.691406 793.15625 131.601562 775.707031 131.601562 L 487.742188 131.601562 C 470.289062 131.601562 457.199219 144.691406 457.199219 162.140625 L 457.199219 231.953125 C 457.199219 249.402344 470.289062 262.492188 487.742188 262.492188 Z M 479.015625 162.140625 C 479.015625 157.777344 483.378906 153.414062 487.742188 153.414062 L 775.707031 153.414062 C 780.066406 153.414062 784.429688 157.777344 784.429688 162.140625 L 784.429688 231.953125 C 784.429688 236.3125 780.066406 240.675781 775.707031 240.675781 L 729.894531 240.675781 C 724.4375 240.675781 720.074219 245.039062 718.984375 249.402344 L 712.441406 290.851562 L 673.171875 243.949219 C 670.992188 241.769531 667.71875 240.675781 664.445312 240.675781 L 487.742188 240.675781 C 483.378906 240.675781 479.015625 236.3125 479.015625 231.953125 Z M 479.015625 162.140625" stroke-linecap="round" />
</g>
		<g transform="matrix(0.19 0 0 0.19 16.38 20.32)" clip-path="url(#CLIPPATH_7)"  >
<clipPath id="CLIPPATH_7" >
	<path transform="matrix(1 0 0 1 -0.36 0.13) translate(-806.97, -513.5)" id="id3" d="M 631 415 L 982.949219 415 L 982.949219 612 L 631 612 Z M 631 415" stroke-linecap="round" />
</clipPath>
<path style="stroke: none; stroke-width: 1; stroke-dasharray: none; stroke-linecap: butt; stroke-dashoffset: 0; stroke-linejoin: miter; stroke-miterlimit: 4; fill: rgb(255,255,255); fill-rule: nonzero; opacity: 1;"  transform=" translate(-807.34, -513.37)" d="M 950.226562 415.199219 L 662.265625 415.199219 C 645.902344 415.199219 631.722656 428.289062 631.722656 445.742188 L 631.722656 515.550781 C 631.722656 531.914062 644.8125 546.09375 662.265625 546.09375 L 699.351562 546.09375 L 709.167969 602.8125 C 710.257812 607.175781 712.441406 610.449219 716.804688 611.539062 C 717.894531 611.539062 718.984375 611.539062 720.074219 611.539062 C 723.347656 611.539062 726.621094 610.449219 728.800781 607.175781 L 780.066406 546.09375 L 952.410156 546.09375 C 968.769531 546.09375 982.949219 533.003906 982.949219 515.550781 L 982.949219 445.742188 C 980.769531 428.289062 967.679688 415.199219 950.226562 415.199219 Z M 958.953125 515.550781 C 958.953125 519.914062 954.589844 524.277344 950.226562 524.277344 L 773.523438 524.277344 C 770.25 524.277344 766.980469 525.367188 764.796875 528.640625 L 725.53125 575.542969 L 718.984375 533.003906 C 717.894531 527.550781 713.53125 524.277344 708.078125 524.277344 L 662.265625 524.277344 C 657.902344 524.277344 653.539062 519.914062 653.539062 515.550781 L 653.539062 445.742188 C 653.539062 441.378906 657.902344 437.015625 662.265625 437.015625 L 950.226562 437.015625 C 954.589844 437.015625 958.953125 441.378906 958.953125 445.742188 Z M 958.953125 515.550781" stroke-linecap="round" />
</g>
		<g transform="matrix(0.19 0 0 0.19 -24.73 -38.99)"  >
<path style="stroke: none; stroke-width: 1; stroke-dasharray: none; stroke-linecap: butt; stroke-dashoffset: 0; stroke-linejoin: miter; stroke-miterlimit: 4; fill: rgb(255,255,255); fill-rule: nonzero; opacity: 1;"  transform=" translate(-588.09, -197.05)" d="M 577.183594 186.140625 L 599 186.140625 L 599 207.953125 L 577.183594 207.953125 Z M 577.183594 186.140625" stroke-linecap="round" />
</g>
		<g transform="matrix(0.19 0 0 0.19 -16.55 -38.99)"  >
<path style="stroke: none; stroke-width: 1; stroke-dasharray: none; stroke-linecap: butt; stroke-dashoffset: 0; stroke-linejoin: miter; stroke-miterlimit: 4; fill: rgb(255,255,255); fill-rule: nonzero; opacity: 1;"  transform=" translate(-631.72, -197.05)" d="M 620.816406 186.140625 L 642.632812 186.140625 L 642.632812 207.953125 L 620.816406 207.953125 Z M 620.816406 186.140625" stroke-linecap="round" />
</g>
		<g transform="matrix(0.19 0 0 0.19 -8.37 -38.99)"  >
<path style="stroke: none; stroke-width: 1; stroke-dasharray: none; stroke-linecap: butt; stroke-dashoffset: 0; stroke-linejoin: miter; stroke-miterlimit: 4; fill: rgb(255,255,255); fill-rule: nonzero; opacity: 1;"  transform=" translate(-675.35, -197.05)" d="M 664.445312 186.140625 L 686.261719 186.140625 L 686.261719 207.953125 L 664.445312 207.953125 Z M 664.445312 186.140625" stroke-linecap="round" />
</g>
		<g transform="matrix(0.19 0 0 0.19 7.99 14.18)"  >
<path style="stroke: none; stroke-width: 1; stroke-dasharray: none; stroke-linecap: butt; stroke-dashoffset: 0; stroke-linejoin: miter; stroke-miterlimit: 4; fill: rgb(255,255,255); fill-rule: nonzero; opacity: 1;"  transform=" translate(-762.62, -480.65)" d="M 751.707031 469.738281 L 773.523438 469.738281 L 773.523438 491.554688 L 751.707031 491.554688 Z M 751.707031 469.738281" stroke-linecap="round" />
</g>
		<g transform="matrix(0.19 0 0 0.19 16.17 14.18)"  >
<path style="stroke: none; stroke-width: 1; stroke-dasharray: none; stroke-linecap: butt; stroke-dashoffset: 0; stroke-linejoin: miter; stroke-miterlimit: 4; fill: rgb(255,255,255); fill-rule: nonzero; opacity: 1;"  transform=" translate(-806.25, -480.65)" d="M 795.339844 469.738281 L 817.15625 469.738281 L 817.15625 491.554688 L 795.339844 491.554688 Z M 795.339844 469.738281" stroke-linecap="round" />
</g>
		<g transform="matrix(0.19 0 0 0.19 24.35 14.18)"  >
<path style="stroke: none; stroke-width: 1; stroke-dasharray: none; stroke-linecap: butt; stroke-dashoffset: 0; stroke-linejoin: miter; stroke-miterlimit: 4; fill: rgb(255,255,255); fill-rule: nonzero; opacity: 1;"  transform=" translate(-849.88, -480.65)" d="M 838.96875 469.738281 L 860.785156 469.738281 L 860.785156 491.554688 L 838.96875 491.554688 Z M 838.96875 469.738281" stroke-linecap="round" />
</g>
		<g transform="matrix(0.19 0 0 0.19 11.57 37.5)"  >
<path style="stroke: none; stroke-width: 1; stroke-dasharray: none; stroke-linecap: butt; stroke-dashoffset: 0; stroke-linejoin: miter; stroke-miterlimit: 4; fill: rgb(255,255,255); fill-rule: nonzero; opacity: 1;"  transform=" translate(-781.71, -605.01)" d="M 912.050781 570.089844 L 895.691406 555.910156 C 850.96875 604.992188 786.613281 633.355469 718.984375 633.355469 C 698.261719 633.355469 676.445312 630.082031 656.8125 624.628906 L 651.359375 645.351562 C 673.171875 650.804688 696.078125 654.078125 720.074219 654.078125 C 792.066406 655.167969 862.964844 623.535156 912.050781 570.089844 Z M 912.050781 570.089844" stroke-linecap="round" />
</g>
		<g transform="matrix(0.19 0 0 0.19 24.76 -41.85)"  >
<path style="stroke: none; stroke-width: 1; stroke-dasharray: none; stroke-linecap: butt; stroke-dashoffset: 0; stroke-linejoin: miter; stroke-miterlimit: 4; fill: rgb(255,255,255); fill-rule: nonzero; opacity: 1;"  transform=" translate(-852.06, -181.78)" d="M 881.507812 188.320312 C 866.238281 176.320312 849.878906 165.414062 832.425781 157.777344 L 822.609375 177.414062 C 838.96875 185.046875 854.242188 194.863281 867.328125 205.773438 Z M 881.507812 188.320312" stroke-linecap="round" />
</g>
		<g transform="matrix(0.19 0 0 0.19 -44.98 -3.3)" clip-path="url(#CLIPPATH_8)"  >
<clipPath id="CLIPPATH_8" >
	<path transform="matrix(1 0 0 1 0.49 -0.39) translate(-480.6, -387)" id="id4" d="M 457.199219 278 L 504 278 L 504 496 L 457.199219 496 Z M 457.199219 278" stroke-linecap="round" />
</clipPath>
<path style="stroke: none; stroke-width: 1; stroke-dasharray: none; stroke-linecap: butt; stroke-dashoffset: 0; stroke-linejoin: miter; stroke-miterlimit: 4; fill: rgb(255,255,255); fill-rule: nonzero; opacity: 1;"  transform=" translate(-480.11, -387.39)" d="M 497.558594 487.191406 C 485.5625 457.738281 479.015625 426.109375 479.015625 393.386719 C 479.015625 356.296875 486.652344 321.394531 503.011719 288.671875 L 483.378906 278.855469 C 465.925781 314.847656 457.199219 353.027344 457.199219 393.386719 C 457.199219 429.378906 463.746094 463.195312 477.925781 495.917969 Z M 497.558594 487.191406" stroke-linecap="round" />
</g>
</g>
</g>
</svg>